# This file uses centimeters as units for non-parametric coordinates.

g default
v -0.432325 0.494939 0.340785
v 0.432325 0.494939 0.340785
v -0.432325 0.494939 0.031104
v 0.432325 0.494939 0.031104
v 0.432325 0.458484 0.340785
v -0.432325 0.458484 0.340785
v -0.432325 0.458484 0.031104
v 0.432325 0.458484 0.031104
v 0.432325 -0.035248 0.340785
v -0.432325 -0.035248 0.340785
v -0.458674 -0.035248 0.031104
v 0.458674 -0.035248 0.031104
v -0.397541 0.458484 0.340785
v 0.397541 0.458484 0.340785
v 0.397541 -0.035248 0.340785
v -0.397541 -0.035248 0.340785
v 0.397541 0.494939 0.340785
v -0.397541 0.494939 0.340785
v -0.432325 0.458484 0.304220
v -0.432325 -0.035248 0.304220
v 0.432325 -0.035248 0.304220
v 0.432325 0.458484 0.304220
v 0.432325 0.494939 0.304220
v -0.432325 0.494939 0.304220
v -0.397541 0.458484 0.313934
v 0.397541 0.458484 0.313934
v -0.397541 -0.035248 0.313934
v 0.397541 -0.035248 0.313934
v -0.405474 -0.035248 0.304220
v -0.405474 -0.035248 0.031104
v -0.405474 0.458484 0.304220
v -0.405474 0.458484 0.031104
v 0.405474 -0.035248 0.304220
v 0.405474 0.458484 0.304220
v 0.405474 -0.035248 0.031104
v 0.405474 0.458484 0.031104
v 0.458674 -0.505377 0.370073
v 0.458674 -0.035248 0.304220
v 0.458674 -0.035248 0.370073
v -0.458674 -0.505377 0.370073
v -0.458674 -0.035248 0.370073
v -0.458674 -0.035248 0.304220
v 0.458674 -0.505377 0.031104
v -0.458674 -0.505377 0.031104
v 0.494871 0.494939 0.031104
v 0.494871 -0.494938 0.031104
v -0.494871 0.494939 0.031104
v -0.494871 -0.494938 0.031104
v 0.017189 0.494939 0.304220
v -0.017189 0.494939 0.304220
v 0.017189 0.494939 0.340785
v -0.017189 0.494939 0.340785
v 0.017189 0.458484 0.340785
v -0.017189 0.458484 0.340785
v 0.017189 0.458484 0.313934
v -0.017189 0.458484 0.313934
v 0.017189 -0.035248 0.313934
v -0.017189 -0.035248 0.313934
v 0.017189 -0.035248 0.340785
v -0.017189 -0.035248 0.340785
v 0.000000 -0.035248 0.370073
vt 0.188782 0.459825
vt 0.020539 0.483899
vt 0.020542 0.459798
vt 0.188836 0.124088
vt 0.020596 0.124061
vt 0.020600 0.099960
vt 0.778083 0.113337
vt 0.804808 0.099958
vt 0.023233 0.764563
vt 0.791465 0.113339
vt 0.865180 0.823786
vt 0.878563 0.823786
vt 0.778044 0.429787
vt 0.791426 0.429789
vt 0.010956 0.099958
vt 0.010954 0.113341
vt 0.009825 0.450153
vt 0.010895 0.483898
vt 0.791428 0.417058
vt 0.804770 0.417060
vt 0.009827 0.437423
vt 0.009873 0.146433
vt 0.354002 0.304360
vt 0.791463 0.126069
vt 0.189470 0.459839
vt 0.000000 0.583867
vt 0.814635 0.099959
vt 1.000040 0.348304
vt 0.980491 0.001003
vt 0.980573 0.168458
vt 0.312840 0.459845
vt 0.692530 0.726155
vt 0.708003 0.543133
vt 0.001068 0.483896
vt 0.673150 0.726148
vt 0.814582 0.543130
vt 0.682869 0.906007
vt 0.682865 0.919287
vt 0.990259 0.348309
vt 0.678126 0.113325
vt 0.000047 0.146432
vt 0.827670 0.365592
vt 0.632811 0.290392
vt 0.632837 0.109693
vt 0.705773 0.558705
vt 0.705649 0.919295
vt 0.967482 0.361600
vt 0.967305 0.001010
vt 0.778064 0.265271
vt 0.778063 0.277853
vt 0.791446 0.265273
vt 0.791445 0.277855
vt 0.977099 0.542982
vt 0.989681 0.542984
vt 0.989704 0.362285
vt 0.977122 0.362283
vt 0.020569 0.291930
vt 0.493608 0.290372
vt 0.000022 0.298217
vt 0.493207 0.294548
vt 0.966869 0.184890
vt 0.045766 0.583861
vt 0.827666 0.184893
vt 0.967295 0.362282
vt 0.000024 0.285635
vt 0.045790 0.764560
vt 0.354003 0.294533
vt 0.967272 0.542981
vt 0.966873 0.365589
vt 0.999531 0.362286
vt 0.493633 0.109673
vt 0.842628 0.643086
vt 0.000000 0.437421
vt 0.842623 0.823785
vt 0.632811 0.290392
vt 0.999508 0.542985
vt 0.493608 0.290411
vt 0.009849 0.298219
vt 0.009851 0.285637
vt 0.708006 0.643090
vt 0.888390 0.823786
vt 0.001052 0.583853
vt 0.888705 0.643085
vt 0.888394 0.643087
vt 0.888702 0.543128
vt 0.878567 0.643087
vt 0.189466 0.640539
vt 0.001145 -0.000000
vt 0.999952 0.168449
vt 0.289422 0.640541
vt 0.001129 0.099957
vt 0.289427 0.459842
vt 0.009827 0.583865
vt 0.852455 0.643086
vt 0.035939 0.583862
vt 0.865185 0.643087
vt 0.023209 0.583864
vt 0.035963 0.764561
vt 0.804805 0.126071
vt 0.493205 0.304374
vt 0.804789 0.265274
vt 0.804787 0.277856
vt 0.493609 0.300238
vt 0.852450 0.823786
vt 0.632813 0.300219
vt 0.791425 0.443171
vt 0.791413 0.543127
vt 0.678087 0.429775
vt 0.804767 0.443172
vt 0.804769 0.429790
vt 0.804820 0.000002
vt 0.804807 0.113341
vt 0.791478 0.000000
vt 0.990266 0.361589
vt 0.791466 0.099957
vt 0.804755 0.543129
vt 0.188763 0.583883
vt 0.312894 0.124108
vt 0.009876 0.133703
vt 0.010897 0.470516
vt 0.020616 0.000003
vt 0.188856 0.000030
vt 0.020523 0.583856
vt 0.692587 0.558700
vt 0.673088 0.906004
vt 0.814594 0.443174
vt 0.814647 0.000003
vt 0.009851 0.764565
vt 0.000024 0.764566
vn 1.000000 0.000000 0.000000
vn 1.000000 0.000000 0.000000
vn 1.000000 0.000000 0.000000
vn -1.000000 0.000000 0.000000
vn -1.000000 0.000000 0.000000
vn -1.000000 0.000000 0.000000
vn -1.000000 0.000000 0.000000
vn -1.000000 0.000000 0.000000
vn -1.000000 0.000000 0.000000
vn -1.000000 0.000000 0.000000
vn 1.000000 0.000000 0.000000
vn 1.000000 0.000000 0.000000
vn 1.000000 0.000000 0.000000
vn 1.000000 0.000000 0.000000
vn -1.000000 0.000000 0.000000
vn -1.000000 0.000000 0.000000
vn 1.000000 0.000000 0.000000
vn 1.000000 0.000000 0.000000
vn 0.000000 1.000000 0.000001
vn 0.000000 1.000000 0.000000
vn 0.000000 1.000000 0.000000
vn 0.000000 0.000000 1.000000
vn 0.000000 0.000000 1.000000
vn 0.000000 0.000000 1.000000
vn 0.000000 0.000000 1.000000
vn 0.000000 0.000000 1.000000
vn 0.000000 0.000000 1.000000
vn 0.000002 0.000000 1.000000
vn 0.000002 0.000000 1.000000
vn 0.000001 0.000001 1.000000
vn 0.000002 0.000000 1.000000
vn 0.000000 1.000000 0.000000
vn 0.000000 1.000000 0.000000
vn 0.000000 1.000000 0.000000
vn 0.000000 0.000002 1.000000
vn 0.000001 0.000002 1.000000
vn -1.000000 0.000000 0.000000
vn -1.000000 0.000000 0.000000
vn -1.000000 0.000000 0.000000
vn -1.000000 0.000000 0.000000
vn -1.000000 0.000000 0.000000
vn -1.000000 0.000000 0.000000
vn 1.000000 0.000000 0.000000
vn 1.000000 0.000000 0.000000
vn 1.000000 0.000000 0.000000
vn 1.000000 0.000000 0.000000
vn 1.000000 0.000000 0.000000
vn 1.000000 0.000000 0.000000
vn 1.000000 0.000000 0.000000
vn 1.000000 0.000000 0.000000
vn -1.000000 0.000000 0.000000
vn -1.000000 0.000000 0.000000
vn 1.000000 0.000000 0.000000
vn 1.000000 0.000000 0.000000
vn 1.000000 0.000000 0.000000
vn 1.000000 0.000000 0.000000
vn -1.000000 0.000000 0.000000
vn -1.000000 0.000000 0.000000
vn -1.000000 0.000000 0.000000
vn -1.000000 0.000000 0.000000
vn 0.000000 1.000000 0.000000
vn 0.000000 1.000000 0.000000
vn 0.000000 1.000000 0.000000
vn 0.000000 1.000000 0.000000
vn 0.000000 0.000000 -1.000000
vn 0.000000 0.000000 -1.000000
vn 0.000000 0.000000 -1.000000
vn 0.000000 0.000000 -1.000000
vn 0.000000 -1.000000 0.000000
vn 0.000000 -1.000000 0.000000
vn 0.000000 -1.000000 0.000000
vn 0.000000 -1.000000 0.000000
vn 0.000000 0.000000 -1.000000
vn 0.000000 0.000000 -1.000000
vn 0.000000 0.000000 -1.000000
vn 0.000000 0.000000 -1.000000
vn 0.000000 1.000000 -0.000000
vn 0.000000 1.000000 -0.000000
vn 0.000000 1.000000 -0.000000
vn 0.000000 1.000000 -0.000000
vn 0.000000 -1.000000 0.000000
vn 0.000000 -1.000000 0.000000
vn 0.000000 -1.000000 0.000000
vn 0.000000 -1.000000 0.000000
vn 0.000000 1.000000 0.000000
vn 0.000000 1.000000 0.000000
vn 0.000000 1.000000 0.000000
vn 0.000000 1.000000 0.000000
vn 0.000000 1.000000 0.000000
vn 0.000000 1.000000 0.000000
vn 0.000001 0.000000 1.000000
vn 0.000001 0.000000 1.000000
vn 0.000001 0.000000 1.000000
vn 0.000001 0.000000 1.000000
vn -0.000001 0.000000 1.000000
vn -0.000001 0.000000 1.000000
vn -0.000001 0.000000 1.000000
vn -0.000001 0.000000 1.000000
vn 0.000001 0.000000 1.000000
vn 0.000001 0.000000 1.000000
vn 0.000001 0.000000 1.000000
vn 0.000001 0.000000 1.000000
vn -0.000001 0.000000 1.000000
vn -0.000001 0.000000 1.000000
vn -0.000001 0.000000 1.000000
vn -0.000001 0.000000 1.000000
vn 0.000000 0.000000 1.000000
vn 0.000000 0.000000 1.000000
vn 0.000000 0.000000 1.000000
vn 0.000000 0.000000 1.000000
vn 0.000000 0.000000 1.000000
vn 0.000000 0.000000 1.000000
vn 0.000000 0.000000 1.000000
vn 0.000000 0.000000 1.000000
vn 0.000000 0.000000 1.000000
vn -0.000000 0.000000 1.000000
vn -0.000000 0.000000 1.000000
vn -0.000000 0.000000 1.000000
vn 0.000000 1.000000 0.000000
vn 0.000000 1.000000 0.000000
vn 0.000000 1.000000 0.000000
vn 0.000000 1.000000 0.000000
vn 0.000000 1.000000 0.000000
vn 0.000000 1.000000 0.000000
vn 0.000000 1.000000 -0.000000
vn 0.000000 1.000000 -0.000000
vn 0.000000 1.000000 -0.000000
vn 0.000000 1.000000 -0.000000
vn 0.000000 1.000000 0.000000
vn 0.000000 1.000000 0.000000
vn 0.000000 0.000000 1.000000
vn 0.000000 0.000002 1.000000
vn 0.000000 0.000002 1.000000
vn 0.000000 0.000000 1.000000
vn 0.000000 1.000000 0.000000
vn 0.000000 1.000000 0.000000
vn 0.000000 1.000000 0.000000
vn 0.000000 0.000000 1.000000
vn 0.000000 0.000000 1.000000
vn 0.000000 0.000000 1.000000
vn 0.000000 0.000000 1.000000
vn 0.000000 0.000000 1.000000
vn 0.000000 -0.000000 1.000000
vn 0.000000 -0.000000 1.000000
vn 0.000000 -1.000000 0.000000
vn 0.000000 -1.000000 0.000000
vn 0.000000 -1.000000 0.000000
vn 0.000000 -1.000000 0.000000
vn 0.000000 1.000000 0.000000
vn 0.000000 1.000000 0.000000
vn 0.000000 -1.000000 0.000000
vn 0.000000 -1.000000 0.000000
vn 0.000000 -1.000000 0.000000
vn 0.000000 -1.000000 0.000000
vn 0.000000 0.000000 1.000000
vn 0.000000 0.000000 1.000000
vn 0.000000 0.000000 1.000000
vn 0.000000 0.000000 1.000000
vn 0.000000 1.000000 0.000000
vn 0.000000 1.000000 0.000000
vn 0.000000 -0.000000 1.000000
vn 0.000000 -0.000000 1.000000
vn 0.000000 -1.000000 0.000000
vn 0.000000 -1.000000 0.000000
vn 0.000000 -1.000000 0.000000
vn 0.000000 -1.000000 0.000000
vn 1.000000 0.000000 0.000000
vn 1.000000 0.000000 0.000000
vn 1.000000 0.000000 0.000000
vn 1.000000 0.000000 0.000000
vn 0.000002 0.000000 1.000000
vn 0.000002 0.000000 1.000000
vn 0.000002 0.000000 1.000000
vn 0.000002 0.000000 1.000000
vn -1.000000 0.000000 0.000000
vn -1.000000 0.000000 0.000000
vn -1.000000 0.000000 0.000000
vn -1.000000 0.000000 0.000000
s 1
g wall3
f 37/1/1 38/2/2 39/3/3
s 2
f 40/4/4 41/5/5 42/6/6
s 3
f 24/115/7 19/8/8 6/112/9 1/10/10
s 4
f 5/110/11 22/109/12 23/106/13 2/14/14
s 3
f 20/93/15 10/97/16 6/9/9 19/128/8
s 4
f 9/96/17 21/86/18 22/12/12 5/11/11
s 5
f 17/19/19 2/14/20 23/13/21
s 6
f 17/19/22 14/20/23 5/110/24 2/14/25
f 15/94/26 9/96/27 5/11/24 14/104/23
f 10/97/28 16/95/29 13/98/30 6/9/31
s 5
f 1/10/32 18/24/33 24/7/34
s 6
f 6/112/31 13/99/30 18/24/35 1/10/36
s off
f 30/25/37 29/92/38 31/90/39 32/87/40
s 2
f 44/122/41 40/4/4 42/6/6 11/121/42
s 1
f 38/2/2 37/1/1 43/117/43 12/123/44
s off
f 34/33/45 33/85/46 35/83/47 36/80/48
s 4
f 23/106/13 22/109/12 8/116/49 4/107/50
s 3
f 7/111/51 19/8/8 24/115/7 3/113/52
s off
f 13/98/53 16/95/54 27/62/55 25/66/56
f 15/94/57 14/104/58 26/74/59 28/72/60
s 9
f 11/121/61 20/15/62 29/91/63 30/88/64
s off
f 20/93/65 19/128/66 31/129/67 29/26/68
f 19/8/69 7/111/70 32/127/71 31/27/72
f 22/12/73 21/86/74 33/84/75 34/81/76
s 10
f 21/18/77 12/123/78 35/82/79 33/34/80
s off
f 8/116/81 22/109/82 34/126/83 36/36/84
s 10
f 21/18/77 9/120/85 39/3/86 38/2/87
s 9
f 10/16/88 20/15/62 42/6/89 41/5/90
f 20/15/62 11/121/61 42/6/89
s 10
f 12/123/78 21/18/77 38/2/87
s off
f 30/89/91 32/28/92 7/39/93 11/30/94
f 36/125/95 35/35/96 12/32/97 8/37/98
f 12/32/99 43/124/100 46/45/101 45/46/102
f 44/29/103 11/30/104 47/47/105 48/48/106
f 7/39/107 3/114/108 47/47/109
f 4/38/110 8/37/111 45/46/112
f 11/30/113 7/39/114 47/47/115
f 8/37/116 12/32/117 45/46/118
s 11
f 15/21/119 39/3/120 9/17/121
f 16/22/122 10/119/123 41/5/124
s 5
f 4/108/125 3/40/126 50/49/127 49/50/128
f 49/50/128 50/49/127 52/51/129 51/52/130
s 6
f 51/52/131 52/51/132 54/101/133 53/102/134
s 11
f 59/78/135 60/79/136 61/57/137
s 6
f 53/102/134 14/20/23 17/19/22 51/52/131
s off
f 26/75/138 55/58/139 57/71/140 28/44/141
s 14
f 39/3/142 61/57/143 37/1/144
s 5
f 23/13/21 49/50/128 51/52/130 17/19/19
f 4/108/125 49/50/128 23/13/21
s off
f 14/105/145 53/103/146 55/77/147 26/43/148
s 11
f 59/78/135 15/21/119 28/73/149 57/59/150
f 15/21/119 59/78/135 61/57/137 39/3/120
s 5
f 50/49/127 3/40/126 24/7/34
f 52/51/129 50/49/127 24/7/34 18/24/33
s 6
f 13/99/30 54/101/133 52/51/132 18/24/35
s off
f 56/60/151 54/100/152 13/23/153 25/67/154
f 58/61/155 56/69/156 25/42/157 27/63/158
s 11
f 16/22/122 60/79/136 58/65/159 27/41/160
f 61/57/137 60/79/136 16/22/122 41/5/124
s 14
f 37/1/144 61/57/143 41/5/161 40/4/162
s off
f 40/4/163 44/118/164 43/31/165 37/1/166
f 55/76/167 53/54/168 59/55/169 57/70/170
f 53/54/171 54/53/172 60/56/173 59/55/174
f 54/53/175 56/68/176 58/64/177 60/56/178
