# This file uses centimeters as units for non-parametric coordinates.

mtllib deviseExport.mtl
g default
v -0.923756 -0.035676 -0.648468
v -1.138260 -0.035676 -0.804314
v -1.403401 -0.035676 -0.804314
v -1.617906 -0.035676 -0.648468
v -1.699839 -0.035676 -0.396303
v -1.617906 -0.035676 -0.144139
v -1.403401 -0.035676 0.011708
v -1.138260 -0.035676 0.011708
v -0.923757 -0.035676 -0.144139
v -0.841823 -0.035676 -0.396303
v -0.923756 0.168261 -0.648468
v -1.138260 0.168261 -0.804314
v -1.403401 0.168261 -0.804314
v -1.617906 0.168261 -0.648468
v -1.699839 0.168261 -0.396303
v -1.617906 0.168261 -0.144139
v -1.403401 0.168261 0.011708
v -1.138260 0.168261 0.011708
v -0.923757 0.168261 -0.144139
v -0.841823 0.168261 -0.396303
v -1.145540 0.168261 -0.759932
v -1.396121 0.168261 -0.759931
v -1.355181 0.168261 -0.396303
v -1.186481 0.168601 -0.396303
v -1.319793 0.168261 -0.032675
v -1.145540 0.260406 -0.759932
v -1.396121 0.260406 -0.759931
v -1.355181 0.260406 -0.396303
v -1.186481 0.260406 -0.396303
v -1.319793 0.260406 -0.032675
v -1.221869 0.260406 -0.032675
v -1.276452 0.168261 0.174903
v -1.265210 0.168601 0.174903
v -1.265210 0.260406 0.174903
v -1.276452 0.260406 0.174903
v -1.221869 0.168942 -0.032675
vt 0.532964 0.000003
vt 0.567583 0.000003
vt 0.402249 0.817046
vt 0.391557 0.849972
vt 0.602202 0.000003
vt 0.430253 0.796693
vt 0.636820 0.000002
vt 0.464872 0.796687
vt 0.671439 0.000002
vt 0.492883 0.817030
vt 0.706058 0.000002
vt 0.503586 0.849953
vt 0.740677 0.000001
vt 0.492894 0.882879
vt 0.775296 0.000001
vt 0.464890 0.903232
vt 0.809914 0.000000
vt 0.430271 0.903239
vt 0.844533 0.000000
vt 0.402261 0.882895
vt 0.322500 0.350086
vt 0.322494 0.316539
vt 0.370970 0.321876
vt 0.371054 0.344757
vt 0.418670 0.326640
vt 0.418590 0.340000
vt 0.406425 0.821175
vt 0.432891 0.801939
vt 0.456481 0.843488
vt 0.438663 0.856438
vt 0.480656 0.884610
vt 0.447407 0.332339
vt 0.447281 0.334989
vt 0.438673 0.333973
vt 0.438669 0.332941
vt 0.470313 0.892126
vt 0.498345 0.000004
vt 0.498346 0.026631
vt 0.844533 0.026628
vt 0.532965 0.026631
vt 0.809915 0.026628
vt 0.775296 0.026628
vt 0.740677 0.026629
vt 0.706058 0.026629
vt 0.671440 0.026629
vt 0.636821 0.026630
vt 0.602202 0.026630
vt 0.567583 0.026630
vt 0.422303 0.314286
vt 0.422369 0.351977
vt 0.372549 0.357087
vt 0.372457 0.309629
vt 0.323884 0.362335
vt 0.310195 0.316547
vt 0.448323 0.336076
vt 0.431689 0.361088
vt 0.323893 0.304303
vt 0.310198 0.350074
vn 0.809017 0.000000 -0.587785
vn 0.309017 0.000000 -0.951057
vn 0.309017 0.000000 -0.951057
vn 0.809017 0.000000 -0.587785
vn -0.309017 0.000000 -0.951057
vn -0.309017 0.000000 -0.951057
vn -0.809017 0.000000 -0.587785
vn -0.809017 0.000000 -0.587785
vn -1.000000 0.000000 0.000000
vn -1.000000 0.000000 0.000000
vn -0.809017 0.000000 0.587785
vn -0.809017 0.000000 0.587785
vn -0.309017 0.000000 0.951057
vn -0.309017 0.000000 0.951057
vn 0.309017 0.000000 0.951056
vn 0.309017 0.000000 0.951056
vn 0.809017 0.000000 0.587785
vn 0.809017 0.000000 0.587785
vn 1.000000 0.000000 0.000001
vn 1.000000 0.000000 0.000001
vn 0.000000 1.000000 -0.000000
vn 0.000000 1.000000 -0.000000
vn 0.000000 1.000000 -0.000000
vn 0.000000 1.000000 -0.000000
vn 0.000000 1.000000 0.000000
vn 0.000000 1.000000 0.000000
vn -0.000000 0.000000 -1.000000
vn -0.000000 0.000000 -1.000000
vn -0.000000 0.000000 -1.000000
vn -0.000000 0.000000 -1.000000
vn -0.993722 0.000000 0.111881
vn -0.994537 0.000000 0.104381
vn -0.994537 0.000000 0.104381
vn -0.993722 0.000000 0.111881
vn 0.993722 0.000000 0.111881
vn 0.993722 0.000000 0.111881
vn 0.993722 0.000000 0.111881
vn 0.993722 0.000000 0.111881
vn -0.990635 0.000000 0.136540
vn -0.990635 0.000000 0.136540
vn 0.000011 0.000000 1.000000
vn 0.000011 0.000000 1.000000
vn 0.000011 0.000000 1.000000
vn 0.000011 0.000000 1.000000
vn 0.000000 1.000000 0.000000
vn 0.000000 1.000000 0.000000
vn -0.978890 0.000000 0.204387
vn -0.978890 0.000000 0.204387
vn 0.995298 -0.000000 0.096864
vn 0.990635 -0.000000 0.136540
vn 0.990633 -0.000000 0.136550
vn 0.995298 -0.000000 0.096864
vn 0.978891 0.000000 0.204385
vn 0.978891 0.000000 0.204385
vn 0.000000 1.000000 -0.000000
vn 0.000000 1.000000 -0.000000
vn 0.000000 1.000000 -0.000000
vn 0.000000 1.000000 -0.000000
vn 0.000000 1.000000 0.000000
vn 0.000000 1.000000 0.000000
vn 0.000000 1.000000 0.000000
vn 0.000000 1.000000 0.000000
vn 0.000719 1.000000 -0.000601
vn 0.000719 1.000000 -0.000601
vn 0.000719 1.000000 -0.000601
vn 0.000719 1.000000 -0.000601
vn 0.001544 0.999999 -0.000259
vn 0.001544 0.999999 -0.000259
vn 0.001544 0.999999 -0.000259
vn 0.001544 0.999999 -0.000259
vn -0.000000 1.000000 -0.000000
vn -0.000000 1.000000 -0.000000
vn -0.000000 1.000000 -0.000000
vn -0.000000 1.000000 -0.000000
vn 0.000000 1.000000 0.000000
vn 0.000000 1.000000 0.000000
vn 0.000000 1.000000 0.000000
vn 0.000000 1.000000 0.000000
vn 0.000000 1.000000 0.000000
vn 0.000000 1.000000 0.000000
vn 0.009354 -0.999956 -0.000820
vn 0.009354 -0.999956 -0.000820
vn 0.009354 -0.999956 -0.000820
vn 0.009354 -0.999956 -0.000820
vn -0.001875 0.999969 0.007670
vn -0.001875 0.999969 0.007670
vn -0.001875 0.999969 0.007670
vn -0.001875 0.999969 0.007670
vn 0.004705 0.999968 0.006476
vn 0.004705 0.999968 0.006476
vn 0.004705 0.999968 0.006476
vn -0.000000 1.000000 0.000001
vn -0.000000 1.000000 0.000001
vn -0.000000 1.000000 0.000001
s 1
g nob
usemtl initialShadingGroup
f 1/1/1 2/2/2 12/48/3 11/40/4
f 2/2/2 3/5/5 13/47/6 12/48/3
f 3/5/5 4/7/7 14/46/8 13/47/6
f 4/7/7 5/9/9 15/45/10 14/46/8
f 5/9/9 6/11/11 16/44/12 15/45/10
f 6/11/11 7/13/13 17/43/14 16/44/12
f 7/13/13 8/15/15 18/42/16 17/43/14
f 8/15/15 9/17/17 19/41/18 18/42/16
f 9/17/17 10/19/19 20/39/20 19/41/18
f 10/37/19 1/1/1 11/40/4 20/38/20
s 2
f 26/21/21 27/22/22 28/23/23 29/24/24
f 29/24/24 28/23/23 30/25/25 31/26/26
s off
f 21/58/27 22/54/28 27/22/29 26/21/30
s 3
f 22/57/31 23/52/32 28/23/33 27/22/34
s off
f 24/51/35 21/53/36 26/21/37 29/24/38
s 3
f 23/52/32 25/49/39 30/25/40 28/23/33
s off
f 32/32/41 33/33/42 34/34/43 35/35/44
s 2
f 31/26/26 30/25/25 35/35/45 34/34/46
s 3
f 30/25/40 25/49/39 32/32/47 35/35/48
s 4
f 29/24/49 31/26/50 36/50/51 24/51/52
f 31/26/50 34/34/53 33/33/54 36/50/51
s off
f 12/3/55 13/6/56 22/28/57 21/27/58
f 14/8/59 15/10/60 23/29/61 22/28/62
f 20/20/63 11/4/64 21/27/65 24/30/66
f 19/18/67 20/20/68 24/30/69 36/36/70
f 15/10/71 16/12/72 25/31/73 23/29/74
f 12/3/75 21/27/76 11/4/77
f 14/8/78 22/28/79 13/6/80
f 32/55/81 25/56/82 36/50/83 33/33/84
f 17/14/85 18/16/86 36/36/87 25/31/88
f 19/18/89 36/36/90 18/16/91
f 17/14/92 25/31/93 16/12/94
g default
v 0.207702 0.201215 2.575719
v 0.492725 0.232547 2.575719
v 0.777748 0.201215 2.575719
v 0.207702 0.283767 2.228581
v 0.492725 0.283767 2.228581
v 0.777748 0.283767 2.228581
v 0.207702 0.283767 1.881442
v 0.492725 0.308489 1.881442
v 0.777748 0.283767 1.881442
v 0.207702 0.283767 1.534304
v 0.492725 0.283767 1.534304
v 0.777748 0.283767 1.534304
v 0.207702 0.201215 1.187166
v 0.492725 0.232547 1.187166
v 0.777748 0.201215 1.187166
vt 1.000000 0.499049
vt 1.000000 0.749049
vt 1.000000 0.999049
vt 0.750000 0.499049
vt 0.750000 0.749049
vt 0.750000 0.999049
vt 0.500000 0.499049
vt 0.500000 0.749049
vt 0.500000 0.999049
vt 0.250000 0.499049
vt 0.250000 0.749049
vt 0.250000 0.999049
vt 0.000000 0.499049
vt 0.000000 0.749049
vt 0.000000 0.999049
vn -0.053892 0.980512 0.188922
vn 0.000000 0.981939 0.189197
vn 0.000000 0.993549 0.113407
vn -0.048791 0.992365 0.113271
vn 0.053892 0.980512 0.188922
vn 0.048791 0.992365 0.113272
vn 0.000000 1.000000 -0.000000
vn -0.043329 0.999061 0.000000
vn 0.043329 0.999061 0.000000
vn -0.000000 0.993549 -0.113407
vn -0.048791 0.992365 -0.113271
vn 0.048791 0.992365 -0.113271
vn -0.000000 0.981939 -0.189197
vn -0.053892 0.980512 -0.188922
vn 0.053892 0.980512 -0.188922
s 1
g displayPlane2
usemtl initialShadingGroup
f 37/59/95 38/60/96 41/63/97 40/62/98
f 38/60/96 39/61/99 42/64/100 41/63/97
f 40/62/98 41/63/97 44/66/101 43/65/102
f 41/63/97 42/64/100 45/67/103 44/66/101
f 43/65/102 44/66/101 47/69/104 46/68/105
f 44/66/101 45/67/103 48/70/106 47/69/104
f 46/68/105 47/69/104 50/72/107 49/71/108
f 47/69/104 48/70/106 51/73/109 50/72/107
g default
v -0.575456 0.214584 0.511523
v -0.273934 0.282159 0.511523
v 0.027587 0.326880 0.511523
v 0.329109 0.282159 0.511523
v 0.630630 0.214584 0.511523
v -0.575456 0.282159 0.210002
v -0.273934 0.399987 0.210002
v 0.027587 0.399987 0.210002
v 0.329109 0.399987 0.210002
v 0.630630 0.282159 0.210002
v -0.575456 0.326880 -0.091520
v -0.273934 0.399987 -0.091520
v 0.027587 0.435274 -0.091520
v 0.329109 0.399987 -0.091520
v 0.630630 0.326880 -0.091520
v -0.575456 0.282159 -0.393041
v -0.273934 0.399987 -0.393041
v 0.027587 0.399987 -0.393041
v 0.329109 0.399987 -0.393041
v 0.630630 0.282159 -0.393041
v -0.575456 0.214584 -0.694563
v -0.273934 0.282159 -0.694563
v 0.027587 0.326880 -0.694563
v 0.329109 0.282159 -0.694563
v 0.630630 0.214584 -0.694563
vt 1.000000 0.000000
vt 1.000000 0.250000
vt 1.000000 0.500000
vt 1.000000 0.750000
vt 1.000000 1.000000
vt 0.750000 0.000000
vt 0.750000 0.250000
vt 0.750000 0.500000
vt 0.750000 0.750000
vt 0.750000 1.000000
vt 0.500000 0.000000
vt 0.500000 0.250000
vt 0.500000 0.500000
vt 0.500000 0.750000
vt 0.500000 1.000000
vt 0.250000 0.000000
vt 0.250000 0.250000
vt 0.250000 0.500000
vt 0.250000 0.750000
vt 0.250000 1.000000
vt 0.000000 0.000000
vt 0.000000 0.250000
vt 0.000000 0.500000
vt 0.000000 0.750000
vt 0.000000 1.000000
vn -0.281948 0.917067 0.281948
vn -0.183652 0.938422 0.292637
vn -0.180451 0.966890 0.180450
vn -0.292637 0.938422 0.183652
vn 0.000000 0.953355 0.301852
vn 0.000000 0.982860 0.184353
vn 0.183652 0.938422 0.292638
vn 0.180451 0.966890 0.180450
vn 0.281948 0.917067 0.281948
vn 0.292637 0.938422 0.183652
vn -0.184353 0.982860 0.000000
vn -0.301852 0.953355 0.000000
vn 0.000000 1.000000 0.000000
vn 0.184353 0.982860 0.000000
vn 0.301852 0.953355 0.000000
vn -0.180451 0.966890 -0.180450
vn -0.292637 0.938422 -0.183652
vn 0.000000 0.982860 -0.184353
vn 0.180451 0.966890 -0.180450
vn 0.292637 0.938422 -0.183652
vn -0.183652 0.938422 -0.292637
vn -0.281948 0.917067 -0.281948
vn -0.000000 0.953355 -0.301852
vn 0.183652 0.938422 -0.292637
vn 0.281948 0.917067 -0.281948
s 1
g displayPlane1
usemtl initialShadingGroup
f 52/74/110 53/75/111 58/80/112 57/79/113
f 53/75/111 54/76/114 59/81/115 58/80/112
f 54/76/114 55/77/116 60/82/117 59/81/115
f 55/77/116 56/78/118 61/83/119 60/82/117
f 57/79/113 58/80/112 63/85/120 62/84/121
f 58/80/112 59/81/115 64/86/122 63/85/120
f 59/81/115 60/82/117 65/87/123 64/86/122
f 60/82/117 61/83/119 66/88/124 65/87/123
f 62/84/121 63/85/120 68/90/125 67/89/126
f 63/85/120 64/86/122 69/91/127 68/90/125
f 64/86/122 65/87/123 70/92/128 69/91/127
f 65/87/123 66/88/124 71/93/129 70/92/128
f 67/89/126 68/90/125 73/95/130 72/94/131
f 68/90/125 69/91/127 74/96/132 73/95/130
f 69/91/127 70/92/128 75/97/133 74/96/132
f 70/92/128 71/93/129 76/98/134 75/97/133
g default
v -0.285810 0.276870 1.565061
v -0.245265 0.262543 1.605606
v 0.119680 0.276870 1.565061
v 0.079135 0.262543 1.605606
v -0.285810 0.276870 1.240661
v -0.245265 0.262543 1.200115
v 0.079135 0.262543 1.200115
v 0.119680 0.276870 1.240661
v -0.350793 -0.046633 1.617049
v -0.350793 -0.046633 1.188673
v -0.297253 -0.046633 1.670589
v 0.131123 -0.046633 1.670589
v 0.184663 -0.046633 1.617049
v 0.184663 -0.046633 1.188673
v -0.297253 -0.046633 1.135133
v 0.131123 -0.046633 1.135133
vt 0.096286 0.754363
vt 0.102653 0.759129
vt 0.050645 0.754932
vt 0.057394 0.750933
vt 0.099312 0.801909
vt 0.047300 0.797748
vt 0.092607 0.806097
vt 0.053731 0.802321
vt 0.047092 0.711374
vt 0.109553 0.711119
vt 0.118753 0.715730
vt 0.140459 0.812024
vt 0.102925 0.845611
vt 0.040471 0.845617
vt 0.031248 0.841095
vt 0.009498 0.744825
vt 0.005085 0.801350
vt 0.037652 0.715410
vt 0.112340 0.841461
vt 0.144869 0.755517
vn 0.333181 0.942863 0.000000
vn 0.019478 0.999810 0.000000
vn 0.019478 0.999810 0.000000
vn 0.333181 0.942863 0.000000
vn -0.019478 0.999810 0.000000
vn -0.019478 0.999810 0.000000
vn -0.333181 0.942863 0.000000
vn -0.333181 0.942863 0.000000
vn -0.980416 0.196938 0.000000
vn -0.980416 0.196938 0.000000
vn -0.980416 0.196938 0.000000
vn -0.980416 0.196938 0.000000
vn 0.000000 0.205685 0.978618
vn 0.000000 0.205685 0.978618
vn 0.000000 0.205685 0.978618
vn 0.000000 0.205685 0.978618
vn -0.664602 0.252863 0.703110
vn -0.664602 0.252863 0.703110
vn -0.664602 0.252863 0.703110
vn -0.664602 0.252863 0.703110
vn 0.980416 0.196938 0.000000
vn 0.980416 0.196938 0.000000
vn 0.980416 0.196938 0.000000
vn 0.980416 0.196938 0.000000
vn 0.664603 0.252863 0.703110
vn 0.664603 0.252863 0.703109
vn 0.664603 0.252863 0.703110
vn 0.664603 0.252863 0.703110
vn 0.000000 0.205686 -0.978618
vn 0.000000 0.205686 -0.978618
vn 0.000000 0.205686 -0.978618
vn 0.000000 0.205686 -0.978618
vn -0.664604 0.252863 -0.703109
vn -0.664604 0.252863 -0.703109
vn -0.664604 0.252863 -0.703109
vn -0.664604 0.252863 -0.703109
vn 0.664605 0.252863 -0.703108
vn 0.664605 0.252863 -0.703108
vn 0.664605 0.252863 -0.703108
vn 0.664605 0.252863 -0.703108
s 1
g button_Num1
usemtl initialShadingGroup
f 77/99/135 78/100/136 82/101/137 81/102/138
f 82/101/137 78/100/136 80/103/139 83/104/140
f 83/104/140 80/103/139 79/105/141 84/106/142
s off
f 77/99/143 81/102/144 86/107/145 85/108/146
f 80/103/147 78/100/148 87/118/149 88/110/150
f 78/100/151 77/99/152 85/108/153 87/109/154
f 84/106/155 79/105/156 89/111/157 90/112/158
f 79/105/159 80/103/160 88/117/161 89/111/162
f 82/101/163 83/104/164 92/115/165 91/114/166
f 81/102/167 82/101/168 91/116/169 86/107/170
f 83/104/171 84/106/172 90/112/173 92/113/174
g default
v -0.285810 0.276870 2.047924
v -0.245265 0.262543 2.088469
v 0.119680 0.276870 2.047924
v 0.079135 0.262543 2.088469
v -0.285810 0.276870 1.723523
v -0.245265 0.262543 1.682978
v 0.079135 0.262543 1.682978
v 0.119680 0.276870 1.723523
v -0.350793 -0.046633 2.099911
v -0.350793 -0.046633 1.671536
v -0.297253 -0.046633 2.153451
v 0.131123 -0.046633 2.153451
v 0.184663 -0.046633 2.099911
v 0.184663 -0.046633 1.671536
v -0.297253 -0.046633 1.617996
v 0.131123 -0.046633 1.617996
vt 0.304778 0.581215
vt 0.311145 0.585980
vt 0.259136 0.581783
vt 0.265885 0.577785
vt 0.307804 0.628761
vt 0.255792 0.624600
vt 0.301098 0.632949
vt 0.262222 0.629173
vt 0.255584 0.538225
vt 0.318045 0.537970
vt 0.327245 0.542581
vt 0.348950 0.638876
vt 0.311416 0.672462
vt 0.248963 0.672468
vt 0.239740 0.667946
vt 0.217989 0.571677
vt 0.213577 0.628202
vt 0.246144 0.542261
vt 0.320831 0.668313
vt 0.353360 0.582369
vn 0.333181 0.942863 0.000000
vn 0.019478 0.999810 0.000000
vn 0.019478 0.999810 0.000000
vn 0.333181 0.942863 0.000000
vn -0.019478 0.999810 0.000000
vn -0.019478 0.999810 0.000000
vn -0.333181 0.942863 0.000000
vn -0.333181 0.942863 0.000000
vn -0.980416 0.196937 0.000000
vn -0.980416 0.196937 0.000000
vn -0.980416 0.196937 0.000000
vn -0.980416 0.196937 0.000000
vn 0.000000 0.205685 0.978618
vn 0.000000 0.205685 0.978618
vn 0.000000 0.205685 0.978618
vn 0.000000 0.205685 0.978618
vn -0.664603 0.252863 0.703110
vn -0.664603 0.252863 0.703110
vn -0.664603 0.252863 0.703110
vn -0.664603 0.252863 0.703110
vn 0.980416 0.196938 0.000000
vn 0.980416 0.196938 0.000000
vn 0.980416 0.196938 0.000000
vn 0.980416 0.196938 0.000000
vn 0.664603 0.252863 0.703110
vn 0.664603 0.252863 0.703110
vn 0.664603 0.252863 0.703110
vn 0.664603 0.252863 0.703110
vn 0.000000 0.205686 -0.978618
vn 0.000000 0.205686 -0.978618
vn 0.000000 0.205686 -0.978618
vn 0.000000 0.205686 -0.978618
vn -0.664603 0.252863 -0.703109
vn -0.664603 0.252863 -0.703110
vn -0.664603 0.252863 -0.703110
vn -0.664603 0.252863 -0.703110
vn 0.664603 0.252863 -0.703109
vn 0.664603 0.252863 -0.703109
vn 0.664603 0.252863 -0.703109
vn 0.664603 0.252863 -0.703109
s 1
g button_Num2
usemtl initialShadingGroup
f 93/119/175 94/120/176 98/121/177 97/122/178
f 98/121/177 94/120/176 96/123/179 99/124/180
f 99/124/180 96/123/179 95/125/181 100/126/182
s off
f 93/119/183 97/122/184 102/127/185 101/128/186
f 96/123/187 94/120/188 103/138/189 104/130/190
f 94/120/191 93/119/192 101/128/193 103/129/194
f 100/126/195 95/125/196 105/131/197 106/132/198
f 95/125/199 96/123/200 104/137/201 105/131/202
f 98/121/203 99/124/204 108/135/205 107/134/206
f 97/122/207 98/121/208 107/136/209 102/127/210
f 99/124/211 100/126/212 106/132/213 108/133/214
g default
v -0.285810 0.276870 2.518375
v -0.245265 0.262543 2.558921
v 0.119680 0.276870 2.518375
v 0.079135 0.262543 2.558921
v -0.285810 0.276870 2.193975
v -0.245265 0.262543 2.153430
v 0.079135 0.262543 2.153430
v 0.119680 0.276870 2.193975
v -0.350793 -0.046633 2.570363
v -0.350793 -0.046633 2.141987
v -0.297253 -0.046633 2.623903
v 0.131123 -0.046633 2.623903
v 0.184663 -0.046633 2.570363
v 0.184663 -0.046633 2.141987
v -0.297253 -0.046633 2.088447
v 0.131123 -0.046633 2.088447
vt 0.716675 0.760283
vt 0.723042 0.765049
vt 0.671034 0.760852
vt 0.677783 0.756854
vt 0.719701 0.807829
vt 0.667690 0.803669
vt 0.712996 0.812018
vt 0.674120 0.808242
vt 0.667481 0.717294
vt 0.729943 0.717039
vt 0.739142 0.721650
vt 0.760848 0.817944
vt 0.723314 0.851531
vt 0.660861 0.851537
vt 0.651638 0.847015
vt 0.629887 0.750746
vt 0.625474 0.807271
vt 0.658041 0.721330
vt 0.732729 0.847382
vt 0.765258 0.761437
vn 0.333181 0.942863 0.000000
vn 0.019478 0.999810 0.000000
vn 0.019478 0.999810 0.000000
vn 0.333181 0.942863 0.000000
vn -0.019478 0.999810 0.000000
vn -0.019478 0.999810 0.000000
vn -0.333181 0.942863 0.000000
vn -0.333181 0.942863 0.000000
vn -0.980416 0.196938 0.000000
vn -0.980416 0.196938 0.000000
vn -0.980416 0.196938 0.000000
vn -0.980416 0.196938 0.000000
vn 0.000000 0.205685 0.978618
vn 0.000000 0.205685 0.978618
vn 0.000000 0.205685 0.978618
vn 0.000000 0.205685 0.978618
vn -0.664603 0.252863 0.703110
vn -0.664603 0.252863 0.703110
vn -0.664603 0.252863 0.703110
vn -0.664603 0.252863 0.703110
vn 0.980416 0.196938 0.000000
vn 0.980416 0.196938 0.000000
vn 0.980416 0.196938 0.000000
vn 0.980416 0.196938 0.000000
vn 0.664603 0.252863 0.703110
vn 0.664603 0.252863 0.703110
vn 0.664603 0.252863 0.703110
vn 0.664603 0.252863 0.703110
vn 0.000000 0.205686 -0.978618
vn 0.000000 0.205686 -0.978618
vn 0.000000 0.205686 -0.978618
vn 0.000000 0.205686 -0.978618
vn -0.664605 0.252863 -0.703108
vn -0.664605 0.252863 -0.703108
vn -0.664605 0.252863 -0.703108
vn -0.664605 0.252863 -0.703108
vn 0.664605 0.252863 -0.703108
vn 0.664605 0.252863 -0.703108
vn 0.664605 0.252863 -0.703108
vn 0.664605 0.252863 -0.703108
s 1
g button_Num3
usemtl initialShadingGroup
f 109/139/215 110/140/216 114/141/217 113/142/218
f 114/141/217 110/140/216 112/143/219 115/144/220
f 115/144/220 112/143/219 111/145/221 116/146/222
s off
f 109/139/223 113/142/224 118/147/225 117/148/226
f 112/143/227 110/140/228 119/158/229 120/150/230
f 110/140/231 109/139/232 117/148/233 119/149/234
f 116/146/235 111/145/236 121/151/237 122/152/238
f 111/145/239 112/143/240 120/157/241 121/151/242
f 114/141/243 115/144/244 124/155/245 123/154/246
f 113/142/247 114/141/248 123/156/249 118/147/250
f 115/144/251 116/146/252 122/152/253 124/153/254
g default
v -0.771335 0.276870 1.565061
v -0.730790 0.262543 1.605606
v -0.365844 0.276870 1.565061
v -0.406389 0.262543 1.605606
v -0.771335 0.276870 1.240661
v -0.730790 0.262543 1.200115
v -0.406389 0.262543 1.200115
v -0.365844 0.276870 1.240661
v -0.836318 -0.046633 1.617049
v -0.836318 -0.046633 1.188673
v -0.782777 -0.046633 1.670589
v -0.354402 -0.046633 1.670589
v -0.300862 -0.046633 1.617049
v -0.300862 -0.046633 1.188673
v -0.782777 -0.046633 1.135133
v -0.354402 -0.046633 1.135133
vt 0.574291 0.760502
vt 0.580658 0.765268
vt 0.528650 0.761071
vt 0.535398 0.757073
vt 0.577317 0.808048
vt 0.525305 0.803887
vt 0.570611 0.812236
vt 0.531735 0.808461
vt 0.525097 0.717513
vt 0.587558 0.717258
vt 0.596758 0.721869
vt 0.618464 0.818163
vt 0.580930 0.851750
vt 0.518476 0.851756
vt 0.509253 0.847234
vt 0.487502 0.750964
vt 0.483090 0.807489
vt 0.515657 0.721549
vt 0.590344 0.847600
vt 0.622874 0.761656
vn 0.333181 0.942863 0.000000
vn 0.019478 0.999810 0.000000
vn 0.019478 0.999810 0.000000
vn 0.333181 0.942863 0.000000
vn -0.019478 0.999810 0.000000
vn -0.019478 0.999810 0.000000
vn -0.333181 0.942863 0.000000
vn -0.333181 0.942863 0.000000
vn -0.980416 0.196938 0.000000
vn -0.980416 0.196938 0.000000
vn -0.980416 0.196938 0.000000
vn -0.980416 0.196938 0.000000
vn 0.000000 0.205685 0.978618
vn 0.000000 0.205685 0.978618
vn 0.000000 0.205685 0.978618
vn 0.000000 0.205685 0.978618
vn -0.664602 0.252863 0.703110
vn -0.664602 0.252863 0.703110
vn -0.664602 0.252863 0.703110
vn -0.664602 0.252863 0.703110
vn 0.980416 0.196938 0.000000
vn 0.980416 0.196938 0.000000
vn 0.980416 0.196938 0.000000
vn 0.980416 0.196938 0.000000
vn 0.664604 0.252863 0.703109
vn 0.664604 0.252863 0.703109
vn 0.664604 0.252863 0.703109
vn 0.664604 0.252863 0.703109
vn 0.000000 0.205686 -0.978618
vn 0.000000 0.205686 -0.978618
vn 0.000000 0.205686 -0.978618
vn 0.000000 0.205686 -0.978618
vn -0.664604 0.252863 -0.703109
vn -0.664604 0.252863 -0.703109
vn -0.664604 0.252863 -0.703109
vn -0.664604 0.252863 -0.703109
vn 0.664605 0.252863 -0.703108
vn 0.664605 0.252863 -0.703108
vn 0.664605 0.252863 -0.703108
vn 0.664605 0.252863 -0.703108
s 1
g button_Num4
usemtl initialShadingGroup
f 125/159/255 126/160/256 130/161/257 129/162/258
f 130/161/257 126/160/256 128/163/259 131/164/260
f 131/164/260 128/163/259 127/165/261 132/166/262
s off
f 125/159/263 129/162/264 134/167/265 133/168/266
f 128/163/267 126/160/268 135/178/269 136/170/270
f 126/160/271 125/159/272 133/168/273 135/169/274
f 132/166/275 127/165/276 137/171/277 138/172/278
f 127/165/279 128/163/280 136/177/281 137/171/282
f 130/161/283 131/164/284 140/175/285 139/174/286
f 129/162/287 130/161/288 139/176/289 134/167/290
f 131/164/291 132/166/292 138/172/293 140/173/294
g default
v -0.771335 0.276870 2.047924
v -0.730790 0.262543 2.088469
v -0.365844 0.276870 2.047924
v -0.406389 0.262543 2.088469
v -0.771335 0.276870 1.723523
v -0.730790 0.262543 1.682978
v -0.406389 0.262543 1.682978
v -0.365844 0.276870 1.723523
v -0.836318 -0.046633 2.099911
v -0.836318 -0.046633 1.671536
v -0.782777 -0.046633 2.153451
v -0.354402 -0.046633 2.153451
v -0.300862 -0.046633 2.099911
v -0.300862 -0.046633 1.671536
v -0.782777 -0.046633 1.617996
v -0.354402 -0.046633 1.617996
vt 0.248841 0.843967
vt 0.255208 0.848733
vt 0.203199 0.844536
vt 0.209948 0.840537
vt 0.251867 0.891513
vt 0.199855 0.887352
vt 0.245161 0.895701
vt 0.206285 0.891925
vt 0.199647 0.800977
vt 0.262108 0.800722
vt 0.271308 0.805334
vt 0.293013 0.901628
vt 0.255480 0.935215
vt 0.193026 0.935221
vt 0.183803 0.930699
vt 0.162052 0.834429
vt 0.157640 0.890954
vt 0.190207 0.805013
vt 0.264894 0.931065
vt 0.297423 0.845121
vn 0.333181 0.942863 0.000000
vn 0.019478 0.999810 0.000000
vn 0.019478 0.999810 0.000000
vn 0.333181 0.942863 0.000000
vn -0.019478 0.999810 0.000000
vn -0.019478 0.999810 0.000000
vn -0.333182 0.942863 0.000000
vn -0.333182 0.942863 0.000000
vn -0.980416 0.196938 0.000000
vn -0.980416 0.196938 0.000000
vn -0.980416 0.196938 0.000000
vn -0.980416 0.196938 0.000000
vn 0.000000 0.205685 0.978618
vn 0.000000 0.205685 0.978618
vn 0.000000 0.205685 0.978618
vn 0.000000 0.205685 0.978618
vn -0.664603 0.252863 0.703110
vn -0.664603 0.252863 0.703110
vn -0.664603 0.252863 0.703110
vn -0.664603 0.252863 0.703110
vn 0.980416 0.196937 0.000000
vn 0.980416 0.196937 0.000000
vn 0.980416 0.196937 0.000000
vn 0.980416 0.196937 0.000000
vn 0.664604 0.252863 0.703109
vn 0.664604 0.252863 0.703109
vn 0.664604 0.252863 0.703109
vn 0.664604 0.252863 0.703109
vn 0.000000 0.205686 -0.978618
vn 0.000000 0.205686 -0.978618
vn 0.000000 0.205686 -0.978618
vn 0.000000 0.205686 -0.978618
vn -0.664603 0.252863 -0.703110
vn -0.664603 0.252863 -0.703110
vn -0.664603 0.252863 -0.703110
vn -0.664603 0.252863 -0.703110
vn 0.664604 0.252863 -0.703109
vn 0.664603 0.252863 -0.703109
vn 0.664603 0.252863 -0.703109
vn 0.664603 0.252863 -0.703109
s 1
g button_Num5
usemtl initialShadingGroup
f 141/179/295 142/180/296 146/181/297 145/182/298
f 146/181/297 142/180/296 144/183/299 147/184/300
f 147/184/300 144/183/299 143/185/301 148/186/302
s off
f 141/179/303 145/182/304 150/187/305 149/188/306
f 144/183/307 142/180/308 151/198/309 152/190/310
f 142/180/311 141/179/312 149/188/313 151/189/314
f 148/186/315 143/185/316 153/191/317 154/192/318
f 143/185/319 144/183/320 152/197/321 153/191/322
f 146/181/323 147/184/324 156/195/325 155/194/326
f 145/182/327 146/181/328 155/196/329 150/187/330
f 147/184/331 148/186/332 154/192/333 156/193/334
g default
v -0.771335 0.276870 2.518375
v -0.730790 0.262543 2.558921
v -0.365844 0.276870 2.518375
v -0.406389 0.262543 2.558921
v -0.771335 0.276870 2.193975
v -0.730790 0.262543 2.153430
v -0.406389 0.262543 2.153430
v -0.365844 0.276870 2.193975
v -0.836318 -0.046633 2.570363
v -0.836318 -0.046633 2.141987
v -0.782777 -0.046633 2.623903
v -0.354402 -0.046633 2.623903
v -0.300862 -0.046633 2.570363
v -0.300862 -0.046633 2.141987
v -0.782777 -0.046633 2.088447
v -0.354402 -0.046633 2.088447
vt 0.950593 0.698121
vt 0.956960 0.702886
vt 0.904951 0.698690
vt 0.911700 0.694691
vt 0.953619 0.745667
vt 0.901607 0.741506
vt 0.946913 0.749855
vt 0.908037 0.746079
vt 0.901399 0.655131
vt 0.963860 0.654876
vt 0.973060 0.659487
vt 0.994765 0.755782
vt 0.957231 0.789368
vt 0.894778 0.789374
vt 0.885555 0.784852
vt 0.863804 0.688583
vt 0.859392 0.745108
vt 0.891959 0.659167
vt 0.966646 0.785219
vt 0.999175 0.699275
vn 0.333181 0.942863 0.000000
vn 0.019478 0.999810 0.000000
vn 0.019478 0.999810 0.000000
vn 0.333181 0.942863 0.000000
vn -0.019478 0.999810 0.000000
vn -0.019478 0.999810 0.000000
vn -0.333181 0.942863 0.000000
vn -0.333181 0.942863 0.000000
vn -0.980416 0.196938 0.000000
vn -0.980416 0.196938 0.000000
vn -0.980416 0.196938 0.000000
vn -0.980416 0.196938 0.000000
vn 0.000000 0.205685 0.978618
vn 0.000000 0.205685 0.978618
vn 0.000000 0.205685 0.978618
vn 0.000000 0.205685 0.978618
vn -0.664603 0.252863 0.703110
vn -0.664603 0.252863 0.703110
vn -0.664603 0.252863 0.703110
vn -0.664603 0.252863 0.703110
vn 0.980416 0.196938 0.000000
vn 0.980416 0.196938 0.000000
vn 0.980416 0.196938 0.000000
vn 0.980416 0.196938 0.000000
vn 0.664604 0.252863 0.703109
vn 0.664604 0.252863 0.703109
vn 0.664604 0.252863 0.703109
vn 0.664604 0.252863 0.703109
vn 0.000000 0.205686 -0.978618
vn 0.000000 0.205686 -0.978618
vn 0.000000 0.205686 -0.978618
vn 0.000000 0.205686 -0.978618
vn -0.664604 0.252862 -0.703109
vn -0.664604 0.252862 -0.703108
vn -0.664604 0.252862 -0.703108
vn -0.664604 0.252862 -0.703108
vn 0.664605 0.252863 -0.703108
vn 0.664605 0.252863 -0.703108
vn 0.664605 0.252863 -0.703108
vn 0.664605 0.252863 -0.703108
s 1
g button_Num6
usemtl initialShadingGroup
f 157/199/335 158/200/336 162/201/337 161/202/338
f 162/201/337 158/200/336 160/203/339 163/204/340
f 163/204/340 160/203/339 159/205/341 164/206/342
s off
f 157/199/343 161/202/344 166/207/345 165/208/346
f 160/203/347 158/200/348 167/218/349 168/210/350
f 158/200/351 157/199/352 165/208/353 167/209/354
f 164/206/355 159/205/356 169/211/357 170/212/358
f 159/205/359 160/203/360 168/217/361 169/211/362
f 162/201/363 163/204/364 172/215/365 171/214/366
f 161/202/367 162/201/368 171/216/369 166/207/370
f 163/204/371 164/206/372 170/212/373 172/213/374
g default
v -1.244051 0.276870 1.565061
v -1.203505 0.262543 1.605606
v -0.838560 0.276870 1.565061
v -0.879105 0.262543 1.605606
v -1.244051 0.276870 1.240661
v -1.203505 0.262543 1.200115
v -0.879105 0.262543 1.200115
v -0.838560 0.276870 1.240661
v -1.309033 -0.046633 1.617049
v -1.309033 -0.046633 1.188673
v -1.255493 -0.046633 1.670589
v -0.827118 -0.046633 1.670589
v -0.773577 -0.046633 1.617049
v -0.773577 -0.046633 1.188673
v -1.255493 -0.046633 1.135133
v -0.827118 -0.046633 1.135133
vt 0.218330 0.709610
vt 0.224697 0.714376
vt 0.172689 0.710179
vt 0.179437 0.706181
vt 0.221356 0.757156
vt 0.169344 0.752995
vt 0.214650 0.761344
vt 0.175774 0.757569
vt 0.169136 0.666621
vt 0.231597 0.666366
vt 0.240797 0.670977
vt 0.262503 0.767271
vt 0.224969 0.800858
vt 0.162515 0.800864
vt 0.153292 0.796342
vt 0.131541 0.700072
vt 0.127129 0.756597
vt 0.159696 0.670657
vt 0.234383 0.796709
vt 0.266913 0.710764
vn 0.333180 0.942863 0.000000
vn 0.019478 0.999810 0.000000
vn 0.019478 0.999810 0.000000
vn 0.333180 0.942863 0.000000
vn -0.019478 0.999810 0.000000
vn -0.019478 0.999810 0.000000
vn -0.333181 0.942863 0.000000
vn -0.333181 0.942863 0.000000
vn -0.980416 0.196937 0.000000
vn -0.980416 0.196937 0.000000
vn -0.980416 0.196937 0.000000
vn -0.980416 0.196937 0.000000
vn 0.000000 0.205685 0.978618
vn 0.000000 0.205685 0.978618
vn 0.000000 0.205685 0.978618
vn 0.000000 0.205685 0.978618
vn -0.664602 0.252862 0.703111
vn -0.664602 0.252862 0.703111
vn -0.664602 0.252862 0.703111
vn -0.664602 0.252862 0.703111
vn 0.980416 0.196938 0.000000
vn 0.980416 0.196938 0.000000
vn 0.980416 0.196938 0.000000
vn 0.980416 0.196938 0.000000
vn 0.664603 0.252863 0.703110
vn 0.664603 0.252863 0.703110
vn 0.664603 0.252863 0.703110
vn 0.664603 0.252863 0.703110
vn 0.000000 0.205686 -0.978618
vn 0.000000 0.205686 -0.978618
vn 0.000000 0.205686 -0.978618
vn 0.000000 0.205686 -0.978618
vn -0.664604 0.252863 -0.703109
vn -0.664604 0.252863 -0.703109
vn -0.664604 0.252863 -0.703109
vn -0.664604 0.252863 -0.703109
vn 0.664605 0.252863 -0.703108
vn 0.664605 0.252863 -0.703108
vn 0.664605 0.252863 -0.703108
vn 0.664605 0.252863 -0.703108
s 1
g button_Num7
usemtl initialShadingGroup
f 173/219/375 174/220/376 178/221/377 177/222/378
f 178/221/377 174/220/376 176/223/379 179/224/380
f 179/224/380 176/223/379 175/225/381 180/226/382
s off
f 173/219/383 177/222/384 182/227/385 181/228/386
f 176/223/387 174/220/388 183/238/389 184/230/390
f 174/220/391 173/219/392 181/228/393 183/229/394
f 180/226/395 175/225/396 185/231/397 186/232/398
f 175/225/399 176/223/400 184/237/401 185/231/402
f 178/221/403 179/224/404 188/235/405 187/234/406
f 177/222/407 178/221/408 187/236/409 182/227/410
f 179/224/411 180/226/412 186/232/413 188/233/414
g default
v -1.244051 0.276870 2.047924
v -1.203505 0.262543 2.088469
v -0.838560 0.276870 2.047924
v -0.879105 0.262543 2.088469
v -1.244051 0.276870 1.723523
v -1.203505 0.262543 1.682978
v -0.879105 0.262543 1.682978
v -0.838560 0.276870 1.723523
v -1.309033 -0.046633 2.099911
v -1.309033 -0.046633 1.671536
v -1.255493 -0.046633 2.153451
v -0.827118 -0.046633 2.153451
v -0.773577 -0.046633 2.099911
v -0.773577 -0.046633 1.671536
v -1.255493 -0.046633 1.617996
v -0.827118 -0.046633 1.617996
vt 0.452247 0.665848
vt 0.458614 0.670614
vt 0.406606 0.666417
vt 0.413355 0.662419
vt 0.455273 0.713394
vt 0.403261 0.709233
vt 0.448568 0.717582
vt 0.409692 0.713807
vt 0.403053 0.622859
vt 0.465515 0.622604
vt 0.474714 0.627215
vt 0.496420 0.723509
vt 0.458886 0.757096
vt 0.396432 0.757102
vt 0.387209 0.752580
vt 0.365459 0.656310
vt 0.361046 0.712835
vt 0.393613 0.626895
vt 0.468301 0.752946
vt 0.500830 0.667002
vn 0.333180 0.942863 0.000000
vn 0.019478 0.999810 0.000000
vn 0.019478 0.999810 0.000000
vn 0.333180 0.942863 0.000000
vn -0.019478 0.999810 0.000000
vn -0.019478 0.999810 0.000000
vn -0.333181 0.942863 0.000000
vn -0.333181 0.942863 0.000000
vn -0.980416 0.196937 0.000000
vn -0.980416 0.196938 0.000000
vn -0.980416 0.196937 0.000000
vn -0.980416 0.196937 0.000000
vn 0.000000 0.205685 0.978618
vn 0.000000 0.205685 0.978618
vn 0.000000 0.205685 0.978618
vn 0.000000 0.205685 0.978618
vn -0.664603 0.252862 0.703110
vn -0.664603 0.252862 0.703110
vn -0.664603 0.252862 0.703110
vn -0.664603 0.252862 0.703110
vn 0.980416 0.196938 0.000000
vn 0.980416 0.196938 0.000000
vn 0.980416 0.196938 0.000000
vn 0.980416 0.196938 0.000000
vn 0.664603 0.252863 0.703110
vn 0.664603 0.252863 0.703110
vn 0.664603 0.252863 0.703109
vn 0.664603 0.252863 0.703110
vn 0.000000 0.205686 -0.978618
vn 0.000000 0.205686 -0.978618
vn 0.000000 0.205686 -0.978618
vn 0.000000 0.205686 -0.978618
vn -0.664603 0.252863 -0.703110
vn -0.664603 0.252863 -0.703110
vn -0.664603 0.252863 -0.703110
vn -0.664603 0.252863 -0.703110
vn 0.664603 0.252863 -0.703109
vn 0.664603 0.252863 -0.703110
vn 0.664603 0.252863 -0.703110
vn 0.664603 0.252863 -0.703109
s 1
g button_Num8
usemtl initialShadingGroup
f 189/239/415 190/240/416 194/241/417 193/242/418
f 194/241/417 190/240/416 192/243/419 195/244/420
f 195/244/420 192/243/419 191/245/421 196/246/422
s off
f 189/239/423 193/242/424 198/247/425 197/248/426
f 192/243/427 190/240/428 199/258/429 200/250/430
f 190/240/431 189/239/432 197/248/433 199/249/434
f 196/246/435 191/245/436 201/251/437 202/252/438
f 191/245/439 192/243/440 200/257/441 201/251/442
f 194/241/443 195/244/444 204/255/445 203/254/446
f 193/242/447 194/241/448 203/256/449 198/247/450
f 195/244/451 196/246/452 202/252/453 204/253/454
g default
v -1.244051 0.276870 2.518375
v -1.203505 0.262543 2.558921
v -0.838560 0.276870 2.518375
v -0.879105 0.262543 2.558921
v -1.244051 0.276870 2.193975
v -1.203505 0.262543 2.153430
v -0.879105 0.262543 2.153430
v -0.838560 0.276870 2.193975
v -1.309033 -0.046633 2.570363
v -1.309033 -0.046633 2.141987
v -1.255493 -0.046633 2.623903
v -0.827118 -0.046633 2.623903
v -0.773577 -0.046633 2.570363
v -0.773577 -0.046633 2.141987
v -1.255493 -0.046633 2.088447
v -0.827118 -0.046633 2.088447
vt 0.808208 0.645473
vt 0.814575 0.650239
vt 0.762567 0.646042
vt 0.769316 0.642043
vt 0.811234 0.693019
vt 0.759222 0.688858
vt 0.804529 0.697207
vt 0.765653 0.693431
vt 0.759014 0.602483
vt 0.821476 0.602228
vt 0.830675 0.606840
vt 0.852381 0.703134
vt 0.814847 0.736721
vt 0.752394 0.736727
vt 0.743170 0.732205
vt 0.721420 0.635935
vt 0.717007 0.692460
vt 0.749574 0.606519
vt 0.824262 0.732571
vt 0.856791 0.646627
vn 0.333180 0.942863 0.000000
vn 0.019478 0.999810 0.000000
vn 0.019478 0.999810 0.000000
vn 0.333180 0.942863 0.000000
vn -0.019478 0.999810 0.000000
vn -0.019478 0.999810 0.000000
vn -0.333181 0.942863 0.000000
vn -0.333181 0.942863 0.000000
vn -0.980416 0.196938 0.000000
vn -0.980416 0.196938 0.000000
vn -0.980416 0.196938 0.000000
vn -0.980416 0.196938 0.000000
vn 0.000000 0.205685 0.978618
vn 0.000000 0.205685 0.978618
vn 0.000000 0.205685 0.978618
vn 0.000000 0.205685 0.978618
vn -0.664603 0.252862 0.703110
vn -0.664603 0.252862 0.703110
vn -0.664603 0.252862 0.703110
vn -0.664603 0.252862 0.703110
vn 0.980416 0.196937 0.000000
vn 0.980416 0.196937 0.000000
vn 0.980416 0.196937 0.000000
vn 0.980416 0.196937 0.000000
vn 0.664603 0.252863 0.703110
vn 0.664603 0.252863 0.703110
vn 0.664603 0.252863 0.703110
vn 0.664603 0.252863 0.703110
vn 0.000000 0.205686 -0.978618
vn 0.000000 0.205686 -0.978618
vn 0.000000 0.205686 -0.978618
vn 0.000000 0.205686 -0.978618
vn -0.664604 0.252862 -0.703108
vn -0.664604 0.252862 -0.703108
vn -0.664605 0.252862 -0.703108
vn -0.664605 0.252862 -0.703108
vn 0.664605 0.252863 -0.703108
vn 0.664605 0.252863 -0.703108
vn 0.664605 0.252863 -0.703108
vn 0.664605 0.252863 -0.703108
s 1
g button_Num9
usemtl initialShadingGroup
f 205/259/455 206/260/456 210/261/457 209/262/458
f 210/261/457 206/260/456 208/263/459 211/264/460
f 211/264/460 208/263/459 207/265/461 212/266/462
s off
f 205/259/463 209/262/464 214/267/465 213/268/466
f 208/263/467 206/260/468 215/278/469 216/270/470
f 206/260/471 205/259/472 213/268/473 215/269/474
f 212/266/475 207/265/476 217/271/477 218/272/478
f 207/265/479 208/263/480 216/277/481 217/271/482
f 210/261/483 211/264/484 220/275/485 219/274/486
f 209/262/487 210/261/488 219/276/489 214/267/490
f 211/264/491 212/266/492 218/272/493 220/273/494
g default
v -1.244051 0.276870 1.085869
v -1.203505 0.262543 1.126414
v -0.838560 0.276870 1.085869
v -0.879105 0.262543 1.126414
v -1.244051 0.276870 0.761468
v -1.203505 0.262543 0.720923
v -0.879105 0.262543 0.720923
v -0.838560 0.276870 0.761468
v -1.309033 -0.046633 1.137856
v -1.309033 -0.046633 0.709481
v -1.255493 -0.046633 1.191397
v -0.827118 -0.046633 1.191397
v -0.773577 -0.046633 1.137856
v -0.773577 -0.046633 0.709481
v -1.255493 -0.046633 0.655941
v -0.827118 -0.046633 0.655941
vt 0.859060 0.788317
vt 0.865427 0.793083
vt 0.813419 0.788886
vt 0.820167 0.784887
vt 0.862086 0.835863
vt 0.810074 0.831702
vt 0.855380 0.840051
vt 0.816504 0.836275
vt 0.809866 0.745327
vt 0.872327 0.745072
vt 0.881527 0.749684
vt 0.903233 0.845978
vt 0.865699 0.879565
vt 0.803245 0.879571
vt 0.794022 0.875049
vt 0.772271 0.778779
vt 0.767859 0.835304
vt 0.800426 0.749363
vt 0.875113 0.875415
vt 0.907643 0.789471
vn 0.333180 0.942863 0.000000
vn 0.019478 0.999810 0.000000
vn 0.019478 0.999810 0.000000
vn 0.333180 0.942863 0.000000
vn -0.019478 0.999810 0.000000
vn -0.019478 0.999810 0.000000
vn -0.333181 0.942863 0.000000
vn -0.333181 0.942863 0.000000
vn -0.980416 0.196937 0.000000
vn -0.980416 0.196937 0.000000
vn -0.980416 0.196937 0.000000
vn -0.980416 0.196937 0.000000
vn 0.000000 0.205686 0.978618
vn 0.000000 0.205686 0.978618
vn 0.000000 0.205686 0.978618
vn 0.000000 0.205686 0.978618
vn -0.664603 0.252863 0.703110
vn -0.664603 0.252863 0.703110
vn -0.664603 0.252863 0.703110
vn -0.664603 0.252863 0.703110
vn 0.980416 0.196937 0.000000
vn 0.980416 0.196937 0.000000
vn 0.980416 0.196937 0.000000
vn 0.980416 0.196937 0.000000
vn 0.664603 0.252863 0.703110
vn 0.664603 0.252863 0.703110
vn 0.664603 0.252863 0.703110
vn 0.664603 0.252863 0.703110
vn 0.000000 0.205686 -0.978618
vn 0.000000 0.205686 -0.978618
vn 0.000000 0.205686 -0.978618
vn 0.000000 0.205686 -0.978618
vn -0.664604 0.252863 -0.703109
vn -0.664604 0.252863 -0.703109
vn -0.664604 0.252863 -0.703109
vn -0.664604 0.252863 -0.703109
vn 0.664604 0.252863 -0.703108
vn 0.664604 0.252863 -0.703108
vn 0.664604 0.252863 -0.703109
vn 0.664604 0.252863 -0.703108
s 1
g button_Num0
usemtl initialShadingGroup
f 221/279/495 222/280/496 226/281/497 225/282/498
f 226/281/497 222/280/496 224/283/499 227/284/500
f 227/284/500 224/283/499 223/285/501 228/286/502
s off
f 221/279/503 225/282/504 230/287/505 229/288/506
f 224/283/507 222/280/508 231/298/509 232/290/510
f 222/280/511 221/279/512 229/288/513 231/289/514
f 228/286/515 223/285/516 233/291/517 234/292/518
f 223/285/519 224/283/520 232/297/521 233/291/522
f 226/281/523 227/284/524 236/295/525 235/294/526
f 225/282/527 226/281/528 235/296/529 230/287/530
f 227/284/531 228/286/532 234/292/533 236/293/534
g default
v -0.306366 0.276870 1.085869
v -0.251059 0.262543 1.126414
v 0.692686 0.276870 1.085869
v 0.652141 0.262543 1.126414
v -0.306366 0.276870 0.761468
v -0.251059 0.262543 0.720923
v 0.652141 0.262543 0.720923
v 0.692686 0.276870 0.761468
v -0.371348 -0.046633 1.137856
v -0.371348 -0.046633 0.709481
v -0.303046 -0.046633 1.191397
v 0.704128 -0.046633 1.191397
v 0.757669 -0.046633 1.137856
v 0.757669 -0.046633 0.709481
v -0.303046 -0.046633 0.655941
v 0.704128 -0.046633 0.655941
vt 0.087087 0.375085
vt 0.094573 0.380814
vt 0.041560 0.380785
vt 0.048627 0.374848
vt 0.094186 0.499719
vt 0.041623 0.499618
vt 0.087766 0.504391
vt 0.048439 0.503655
vt 0.034935 0.336645
vt 0.096920 0.331402
vt 0.107682 0.336239
vt 0.135767 0.506615
vt 0.100915 0.542795
vt 0.038689 0.547589
vt 0.029189 0.543810
vt 0.000000 0.373886
vt 0.000024 0.506406
vt 0.024732 0.342469
vt 0.109943 0.537961
vt 0.136151 0.374029
vn 0.250778 0.968045 0.000000
vn 0.008386 0.999965 0.000000
vn 0.008386 0.999965 0.000000
vn 0.250778 0.968045 0.000000
vn -0.007253 0.999974 0.000000
vn -0.007253 0.999974 0.000000
vn -0.333181 0.942863 0.000000
vn -0.333181 0.942863 0.000000
vn -0.980416 0.196938 0.000000
vn -0.980416 0.196938 0.000000
vn -0.980416 0.196938 0.000000
vn -0.980416 0.196938 0.000000
vn 0.000000 0.205686 0.978618
vn 0.000000 0.205686 0.978618
vn 0.000000 0.205686 0.978618
vn 0.000000 0.205686 0.978618
vn -0.567926 0.249981 0.784200
vn -0.567926 0.249981 0.784200
vn -0.567926 0.249981 0.784200
vn -0.567926 0.249981 0.784200
vn 0.980416 0.196938 0.000000
vn 0.980416 0.196938 0.000000
vn 0.980416 0.196938 0.000000
vn 0.980416 0.196938 0.000000
vn 0.664603 0.252863 0.703109
vn 0.664603 0.252863 0.703109
vn 0.664603 0.252863 0.703109
vn 0.664603 0.252863 0.703109
vn 0.000000 0.205686 -0.978618
vn 0.000000 0.205686 -0.978618
vn 0.000000 0.205686 -0.978618
vn 0.000000 0.205686 -0.978618
vn -0.567927 0.249981 -0.784199
vn -0.567927 0.249981 -0.784199
vn -0.567927 0.249981 -0.784199
vn -0.567927 0.249981 -0.784199
vn 0.664604 0.252863 -0.703108
vn 0.664604 0.252863 -0.703108
vn 0.664604 0.252863 -0.703108
vn 0.664604 0.252863 -0.703108
s 1
g button_Recall
usemtl initialShadingGroup
f 237/299/535 238/300/536 242/301/537 241/302/538
f 242/301/537 238/300/536 240/303/539 243/304/540
f 243/304/540 240/303/539 239/305/541 244/306/542
s off
f 237/299/543 241/302/544 246/307/545 245/308/546
f 240/303/547 238/300/548 247/318/549 248/310/550
f 238/300/551 237/299/552 245/308/553 247/309/554
f 244/306/555 239/305/556 249/311/557 250/312/558
f 239/305/559 240/303/560 248/317/561 249/311/562
f 242/301/563 243/304/564 252/315/565 251/314/566
f 241/302/567 242/301/568 251/316/569 246/307/570
f 243/304/571 244/306/572 250/312/573 252/313/574
g default
v -0.778830 0.276870 1.085869
v -0.738285 0.262543 1.126414
v -0.373339 0.276870 1.085869
v -0.413884 0.262543 1.126414
v -0.778830 0.276870 0.761468
v -0.738285 0.262543 0.720923
v -0.413884 0.262543 0.720923
v -0.373339 0.276870 0.761468
v -0.843812 -0.046633 1.137856
v -0.843812 -0.046633 0.709481
v -0.790272 -0.046633 1.191397
v -0.361897 -0.046633 1.191397
v -0.308356 -0.046633 1.137856
v -0.308356 -0.046633 0.709481
v -0.790272 -0.046633 0.655941
v -0.361897 -0.046633 0.655941
vt 0.360714 0.756045
vt 0.367081 0.760810
vt 0.315073 0.756613
vt 0.321822 0.752615
vt 0.363740 0.803591
vt 0.311728 0.799430
vt 0.357035 0.807779
vt 0.318159 0.804003
vt 0.311520 0.713055
vt 0.373982 0.712800
vt 0.383181 0.717411
vt 0.404887 0.813706
vt 0.367353 0.847292
vt 0.304900 0.847298
vt 0.295677 0.842776
vt 0.273926 0.746507
vt 0.269513 0.803032
vt 0.302080 0.717091
vt 0.376768 0.843143
vt 0.409297 0.757199
vn 0.333180 0.942863 0.000000
vn 0.019478 0.999810 0.000000
vn 0.019478 0.999810 0.000000
vn 0.333180 0.942863 0.000000
vn -0.019478 0.999810 0.000000
vn -0.019478 0.999810 0.000000
vn -0.333182 0.942863 0.000000
vn -0.333182 0.942863 0.000000
vn -0.980416 0.196937 0.000000
vn -0.980416 0.196937 0.000000
vn -0.980416 0.196937 0.000000
vn -0.980416 0.196937 0.000000
vn 0.000000 0.205686 0.978618
vn 0.000000 0.205686 0.978618
vn 0.000000 0.205686 0.978618
vn 0.000000 0.205686 0.978618
vn -0.664603 0.252862 0.703110
vn -0.664603 0.252862 0.703110
vn -0.664603 0.252862 0.703110
vn -0.664603 0.252862 0.703110
vn 0.980416 0.196938 0.000000
vn 0.980416 0.196938 0.000000
vn 0.980416 0.196938 0.000000
vn 0.980416 0.196938 0.000000
vn 0.664603 0.252863 0.703109
vn 0.664603 0.252863 0.703109
vn 0.664603 0.252863 0.703109
vn 0.664603 0.252863 0.703109
vn 0.000000 0.205686 -0.978618
vn 0.000000 0.205686 -0.978618
vn 0.000000 0.205686 -0.978618
vn 0.000000 0.205686 -0.978618
vn -0.664604 0.252863 -0.703109
vn -0.664604 0.252863 -0.703109
vn -0.664604 0.252863 -0.703109
vn -0.664604 0.252863 -0.703109
vn 0.664604 0.252863 -0.703108
vn 0.664604 0.252863 -0.703108
vn 0.664604 0.252863 -0.703108
vn 0.664604 0.252863 -0.703108
s 1
g button_Yes
usemtl initialShadingGroup
f 253/319/575 254/320/576 258/321/577 257/322/578
f 258/321/577 254/320/576 256/323/579 259/324/580
f 259/324/580 256/323/579 255/325/581 260/326/582
s off
f 253/319/583 257/322/584 262/327/585 261/328/586
f 256/323/587 254/320/588 263/338/589 264/330/590
f 254/320/591 253/319/592 261/328/593 263/329/594
f 260/326/595 255/325/596 265/331/597 266/332/598
f 255/325/599 256/323/600 264/337/601 265/331/602
f 258/321/603 259/324/604 268/335/605 267/334/606
f 257/322/607 258/321/608 267/336/609 262/327/610
f 259/324/611 260/326/612 266/332/613 268/333/614
g default
v -1.310514 0.051122 0.594723
v -1.166646 0.051122 0.594723
v -1.310514 0.051122 0.104910
v -1.166646 0.051122 0.104910
vt 0.913175 0.018785
vt 0.913178 0.037570
vt 0.849221 0.018797
vt 0.849225 0.037582
vn 0.000000 1.000000 0.000000
vn 0.000000 1.000000 0.000000
vn 0.000000 1.000000 0.000000
vn 0.000000 1.000000 0.000000
s off
g option3
usemtl initialShadingGroup
f 269/339/615 270/340/616 272/342/617 271/341/618
g default
v -1.120932 0.051122 0.594723
v -0.977064 0.051122 0.594723
v -1.120932 0.051122 0.104910
v -0.977064 0.051122 0.104910
vt 0.913175 0.000000
vt 0.913178 0.018785
vt 0.849221 0.000012
vt 0.849225 0.018796
vn 0.000000 1.000000 0.000000
vn 0.000000 1.000000 0.000000
vn 0.000000 1.000000 0.000000
vn 0.000000 1.000000 0.000000
s off
g option2
usemtl initialShadingGroup
f 273/343/619 274/344/620 276/346/621 275/345/622
g default
v -0.916415 0.051122 0.594723
v -0.772547 0.051122 0.594723
v -0.916415 0.051122 0.104910
v -0.772547 0.051122 0.104910
vt 0.999623 0.018782
vt 0.999626 0.037566
vt 0.935669 0.018793
vt 0.935673 0.037578
vn 0.000000 1.000000 0.000000
vn 0.000000 1.000000 0.000000
vn 0.000000 1.000000 0.000000
vn 0.000000 1.000000 0.000000
s off
g option1
usemtl initialShadingGroup
f 277/347/623 278/348/624 280/350/625 279/349/626
g default
v -1.519625 0.051122 0.594723
v -1.375757 0.051122 0.594723
v -1.519625 0.051122 0.104910
v -1.375757 0.051122 0.104910
vt 0.979282 0.000000
vt 0.979285 0.018784
vt 0.915328 0.000012
vt 0.915332 0.018796
vn 0.000000 1.000000 0.000000
vn 0.000000 1.000000 0.000000
vn 0.000000 1.000000 0.000000
vn 0.000000 1.000000 0.000000
s off
g option4
usemtl initialShadingGroup
f 281/351/627 282/352/628 284/354/629 283/353/630
g default
v -1.713373 0.051122 0.594723
v -1.569505 0.051122 0.594723
v -1.713373 0.051122 0.104910
v -1.569505 0.051122 0.104910
vt 0.847068 0.026628
vt 0.847071 0.045412
vt 0.783114 0.026639
vt 0.783118 0.045424
vn 0.000000 1.000000 0.000000
vn 0.000000 1.000000 0.000000
vn 0.000000 1.000000 0.000000
vn 0.000000 1.000000 0.000000
s off
g pPlane5
usemtl initialShadingGroup
f 285/355/631 286/356/632 288/358/633 287/357/634
g default
v -0.522898 0.057498 0.495376
v 0.650892 0.057498 0.495376
v -0.522898 0.057498 -0.678415
v 0.650892 0.057498 -0.678415
v -0.561540 0.356592 0.534018
v 0.689534 0.356592 0.534018
v -0.561540 0.356592 -0.717056
v 0.689534 0.356592 -0.717056
v -0.668338 0.224349 0.641378
v 0.440071 0.224350 0.650007
v 0.796895 0.224349 0.641378
v -0.668338 0.224349 -0.824418
v 0.796895 0.224349 -0.824418
v -0.668338 -0.358271 -0.824418
v 0.796895 -0.358271 0.641379
v 0.796895 -0.358271 -0.824418
v -0.668338 0.031631 -0.824418
v -0.668338 0.031631 0.641379
v 0.201991 0.033939 0.652290
v 0.796895 0.031631 0.641379
v 0.796895 0.031631 -0.824418
v -1.711546 -0.363698 2.606807
v 0.787806 -0.363698 2.606807
v -1.722046 0.037315 2.606807
v 0.787806 0.030562 2.606807
v -1.719707 0.037315 -0.669134
v -1.719707 -0.363698 -0.669134
v -1.719707 0.037315 0.659389
v -1.722046 0.037315 0.705336
v -1.711546 -0.363698 0.705336
v -1.719707 -0.363698 0.659389
v 0.787806 -0.363698 1.183694
v 0.787806 0.030562 1.180165
v -1.441391 0.037315 2.606807
v -1.303831 0.037315 0.715450
v -1.011355 0.037315 -0.815466
v -1.011355 -0.363698 -0.815466
v -1.180307 -0.363698 0.659389
v -1.176227 -0.363698 0.705336
v -1.176227 -0.363698 2.606807
v -1.181477 0.037315 2.606807
v -0.874850 0.037315 -0.669134
v -0.874850 -0.363698 -0.669134
v -0.903746 -0.363698 0.659389
v -0.901706 -0.363698 1.183694
v -0.901706 -0.363698 2.606807
v -0.904331 0.037315 2.606807
v -1.386678 0.037315 -0.874343
v -1.386678 -0.363698 -0.874343
v -1.439636 -0.363698 0.659389
v -1.433516 -0.363698 0.705336
v -1.433516 -0.363698 2.606807
v -0.982769 0.037315 0.635045
v -0.920776 0.037315 1.162803
v -0.918460 0.037315 0.645192
v 0.249781 0.037977 2.566774
v 0.754287 0.037977 2.566774
v 0.249781 0.037977 1.214165
v 0.754287 0.037977 1.214165
v 0.249781 0.327347 2.566774
v 0.754287 0.327347 2.566774
v 0.249781 0.327347 1.214165
v 0.754287 0.327347 1.214165
v 0.201990 0.327347 2.606807
v 0.787806 0.327347 2.606807
v 0.201990 0.327347 1.180165
v 0.787806 0.327347 1.180165
v 0.201990 0.033939 1.180165
v 0.201991 0.033939 2.606807
v 0.201991 -0.363698 2.606807
v 0.201991 -0.363698 1.183694
v 0.201991 -0.363698 0.659389
v -0.668338 0.031631 -0.641310
v -0.668338 -0.363698 -0.669134
v -0.722215 -0.363698 0.659389
v -0.720547 -0.363698 1.183694
v -0.720547 -0.363698 2.606807
v -0.722694 0.036700 2.606807
v -0.736142 0.036700 1.165967
v -0.522898 0.057498 -0.641310
v -0.561540 0.356592 -0.641309
v -0.668338 0.224349 -0.641310
v 0.098043 0.057498 -0.678415
v 0.100284 0.356592 -0.717056
v 0.106778 0.224349 -0.824418
v 0.106778 0.031631 -0.824418
v 0.106778 -0.358271 -0.824418
v 0.125584 -0.359343 -0.531340
vt 0.395346 0.608662
vt 0.910341 0.803930
vt 0.355961 0.455205
vt 0.395338 0.455203
vt 0.949614 0.962248
vt 0.519762 0.717258
vt 0.790394 0.565557
vt 0.829770 0.560513
vt 0.395337 0.445313
vt 0.355961 0.450360
vt 0.829774 0.488330
vt 0.790397 0.488620
vt 0.417532 0.455201
vt 0.417541 0.622678
vt 0.972538 0.929643
vt 0.972078 0.976193
vt 0.768153 0.579573
vt 0.768157 0.489467
vt 0.417531 0.431294
vt 0.442694 0.455200
vt 0.442704 0.622677
vt 0.239999 0.303714
vt 0.237912 0.381423
vt 0.742991 0.579572
vt 0.742994 0.489465
vt 0.743001 0.388261
vt 0.804119 0.383885
vt 0.692083 0.579570
vt 0.692085 0.489462
vt 0.692093 0.388257
vt 0.496400 0.000499
vt 0.548706 0.091063
vt 0.496277 0.089742
vt 0.496349 0.053014
vt 0.065487 0.054312
vt 0.050870 0.098319
vt 1.000000 0.099406
vt 0.977001 0.055773
vt 0.247684 0.052316
vt 0.241609 0.052507
vt 0.240982 0.000079
vt 0.797372 0.055983
vt 0.803209 0.091548
vt 0.797201 0.092319
vt 0.309319 0.432369
vt 0.260015 0.461058
vt 0.547227 0.381449
vt 0.171519 0.255232
vt 0.249355 0.106807
vt 0.053917 0.144945
vt 0.069037 0.163537
vt 0.976477 0.166185
vt 0.995685 0.148437
vt 0.803048 0.125442
vt 0.802875 0.161587
vt 0.797041 0.125947
vt 0.734357 0.161520
vt 0.548565 0.124704
vt 0.548411 0.160602
vt 0.496177 0.123762
vt 0.496066 0.160010
vt 0.733629 0.305786
vt 0.498345 0.501893
vt 0.547624 0.304892
vt 0.495632 0.304641
vt 0.239074 0.149179
vt 0.307489 0.157490
vt 0.240282 0.157562
vt 0.213687 0.571596
vt 0.097510 0.288540
vt 0.045766 0.263953
vt 0.082175 0.680192
vt 0.132165 0.266056
vt 0.163841 0.511225
vt 0.203731 0.528049
vt 0.174532 0.453861
vt 0.215361 0.447673
vt 0.083839 0.688113
vt 0.134274 0.262266
vt 0.209976 0.531736
vt 0.217605 0.447036
vt 0.496024 0.183765
vt 0.307843 0.181668
vt 0.548299 0.184291
vt 0.734242 0.185202
vt 0.802761 0.185313
vt 0.671806 0.388256
vt 0.653818 0.491918
vt 0.493601 0.431290
vt 0.997169 0.784871
vt 0.692083 0.630478
vt 0.500699 0.630479
vt 0.442693 0.431292
vt 0.692083 0.655641
vt 0.500699 0.655641
vt 0.768164 0.388262
vt 0.972005 0.784969
vt 0.678065 0.677881
vt 0.790403 0.402208
vt 0.514716 0.677882
vt 0.949724 0.798898
vt 0.673020 0.717258
vt 0.829779 0.407255
vt 0.910243 0.957190
vt 0.355969 0.603619
vt 0.997348 0.898578
vt 0.997351 0.976398
vt 0.239242 0.190236
vt 0.494311 0.451564
vt 0.024800 0.205497
vt 0.073865 0.190292
vt 0.500699 0.579570
vt 0.498346 0.381223
vt 0.802151 0.306121
vt 0.494778 0.378989
vt 0.140805 0.215781
vt 0.134286 0.262448
vt 0.114051 0.711686
vt 0.068331 0.192671
vt 0.056557 0.227919
vt 0.309050 0.304272
vt 0.238969 0.528840
vt 0.209858 0.531590
vt 0.308344 0.380851
vt 0.231807 0.417177
vt 0.217811 0.447051
vt 0.060466 0.234917
vt 0.045841 0.665776
vt 0.065148 0.001905
vt 0.803382 0.054946
vt 0.548856 0.054717
vt 0.247186 -0.000000
vt 0.733244 0.382347
vt 0.495293 0.430512
vt 0.238425 0.432373
vt 0.495689 0.381185
vt 0.000000 0.100822
vt 0.007820 0.155273
vt 0.017039 0.179705
vt 0.976349 0.193174
vt 0.007264 0.048286
vn 0.991757 0.128130 0.000000
vn 0.991757 0.128130 0.000000
vn 0.991758 0.128130 0.000000
vn 0.991757 0.128129 0.000000
vn 0.000000 0.128130 -0.991757
vn 0.000000 0.128130 -0.991757
vn 0.000000 0.128130 -0.991757
vn 0.000000 0.128130 -0.991757
vn -0.991757 0.128130 0.000000
vn -0.991757 0.128130 0.000000
vn -0.991757 0.128130 0.000000
vn -0.991757 0.128130 0.000000
vn 0.000000 0.128128 0.991758
vn 0.000000 0.128128 0.991758
vn 0.000000 0.128128 0.991758
vn 0.000000 0.128128 0.991758
vn -0.777981 0.628288 0.000000
vn -0.777981 0.628288 0.000000
vn -0.777981 0.628288 0.000000
vn -0.777981 0.628288 0.000000
vn -0.000000 0.646338 0.763052
vn -0.000000 0.646338 0.763052
vn -0.000000 0.646338 0.763052
vn -0.000000 0.646338 0.763052
vn -0.000000 0.646337 0.763052
vn 0.776364 0.630285 0.000000
vn 0.776364 0.630285 0.000000
vn 0.776364 0.630285 0.000000
vn 0.776364 0.630285 0.000000
vn 0.000000 0.630289 -0.776361
vn 0.000000 0.630289 -0.776361
vn 0.000000 0.630289 -0.776361
vn 0.000000 0.630289 -0.776361
vn -1.000000 0.000000 0.000000
vn -1.000000 0.000000 0.000000
vn -1.000000 0.000000 0.000000
vn -1.000000 0.000000 0.000000
vn -0.009888 0.012104 0.999878
vn -0.009888 0.012104 0.999878
vn -0.009888 0.012104 0.999878
vn -0.009888 0.012104 0.999878
vn 0.020510 -0.006786 0.999767
vn 0.020510 -0.006786 0.999767
vn 0.020510 -0.006786 0.999767
vn 0.020510 -0.006786 0.999767
vn 1.000000 0.000000 0.000000
vn 1.000000 0.000000 0.000000
vn 1.000000 0.000000 0.000000
vn 1.000000 0.000000 0.000000
vn 0.000000 0.000000 -1.000000
vn 0.000000 0.000000 -1.000000
vn 0.000000 0.000000 -1.000000
vn 0.000000 0.000000 -1.000000
vn 1.000000 0.000000 0.000000
vn 1.000000 0.000000 0.000000
vn 0.000000 0.000000 -1.000000
vn 0.000000 0.000000 -1.000000
vn 0.000000 0.000000 1.000000
vn 0.000000 0.000000 1.000000
vn 0.000000 0.000000 1.000000
vn 0.000000 0.000000 1.000000
vn -0.524595 0.000000 -0.851352
vn -0.202309 0.000000 -0.979322
vn -0.202310 0.000000 -0.979322
vn -0.524595 0.000000 -0.851352
vn -0.999664 -0.025866 0.001493
vn -0.999998 -0.000438 0.002118
vn -0.999998 -0.000438 0.002118
vn -0.999664 -0.025867 0.001490
vn 0.000000 -1.000000 0.000000
vn 0.000000 -1.000000 -0.000000
vn 0.000000 -1.000000 -0.000000
vn 0.000000 -1.000000 0.000000
vn 0.999990 0.000020 0.004546
vn 0.999859 0.000076 0.016812
vn 0.999859 0.000076 0.016812
vn 0.999989 0.000021 0.004648
vn 0.000000 -1.000000 0.000000
vn 0.000000 -1.000000 0.000000
vn 1.000000 0.000000 0.000000
vn 1.000000 0.000000 0.000000
vn -0.999657 -0.026175 0.000000
vn -0.999657 -0.026175 0.000000
vn -1.000000 0.000000 0.000000
vn -1.000000 0.000000 0.000000
vn 0.000000 -1.000000 -0.000000
vn 0.000000 -1.000000 -0.000000
vn -0.000000 1.000000 0.000000
vn -0.000000 1.000000 0.000000
vn -0.000000 1.000000 0.000000
vn -0.000000 1.000000 0.000000
vn -0.000000 1.000000 0.000000
vn 0.372138 -0.000000 -0.928177
vn 0.427794 0.018823 -0.903681
vn 0.424664 0.018986 -0.905152
vn 0.372138 -0.000000 -0.928178
vn 0.000000 -1.000000 0.000000
vn 0.000000 -1.000000 0.000000
vn 0.000000 -1.000000 0.000000
vn 0.000000 -1.000000 0.000000
vn 0.000000 -1.000000 0.000000
vn 0.000000 -1.000000 -0.000000
vn 0.000000 -1.000000 0.000000
vn 0.000000 -1.000000 0.000000
vn 0.000000 0.000000 1.000000
vn 0.000000 0.000000 1.000000
vn -0.000000 0.000000 1.000000
vn -0.000000 0.000000 1.000000
vn 0.000483 -1.000000 -0.000540
vn 0.001801 -0.999996 -0.002013
vn 0.004519 -0.999977 -0.005049
vn 0.001248 -0.999998 -0.001395
vn 0.000000 -1.000000 0.000000
vn 0.000000 -1.000000 0.000000
vn 0.000000 0.000000 1.000000
vn 0.000000 0.000000 1.000000
vn 0.000001 0.000000 1.000000
vn 0.000001 0.000000 1.000000
vn -0.000000 1.000000 0.000000
vn -0.000000 1.000000 -0.000000
vn -0.000000 1.000000 0.000000
vn -0.000000 1.000000 0.000000
vn -0.000001 1.000000 -0.000000
vn -0.000000 1.000000 -0.000000
vn -0.000000 1.000000 -0.000000
vn -0.000000 1.000000 -0.000000
vn -0.000000 1.000000 -0.000000
vn -0.000000 1.000000 -0.000000
vn -0.000000 1.000000 -0.000000
vn -0.000000 1.000000 -0.000000
vn -0.000000 1.000000 -0.000000
vn -0.000000 1.000000 -0.000000
vn -0.000000 1.000000 -0.000000
vn 0.004824 0.999988 0.001044
vn 0.004824 0.999988 0.001044
vn 0.002115 0.999995 -0.002467
vn 0.002121 0.999995 -0.002458
vn 0.000000 0.000000 -1.000000
vn 0.000000 0.000000 -1.000000
vn 0.000000 0.000000 -1.000000
vn 0.000000 0.000000 -1.000000
vn 1.000000 0.000000 0.000000
vn 1.000000 0.000000 0.000000
vn 1.000000 0.000000 0.000000
vn 1.000000 0.000000 0.000000
vn -1.000000 0.000000 0.000000
vn -1.000000 0.000000 0.000000
vn -1.000000 0.000000 0.000000
vn -1.000000 0.000000 0.000000
vn 0.000000 0.000000 1.000000
vn 0.000000 0.000000 1.000000
vn 0.000000 0.000000 1.000000
vn 0.000000 0.000000 1.000000
vn 0.000000 1.000000 -0.000000
vn 0.000000 1.000000 -0.000000
vn 0.000000 1.000000 -0.000000
vn 0.000000 1.000000 -0.000000
vn 0.000000 1.000000 0.000000
vn 0.000000 1.000000 0.000000
vn 0.000000 1.000000 0.000000
vn 0.000000 1.000000 0.000000
vn 0.000000 1.000000 0.000000
vn 0.000000 1.000000 0.000000
vn 0.000000 1.000000 0.000000
vn 0.000000 1.000000 0.000000
vn 0.000000 1.000000 0.000000
vn 0.000000 1.000000 0.000000
vn 0.000000 1.000000 0.000000
vn 0.000000 1.000000 0.000000
vn 0.003029 0.999995 -0.000017
vn 0.003032 0.999995 -0.000017
vn 0.003360 0.999994 -0.000035
vn 0.003360 0.999994 -0.000035
vn -0.000000 0.000000 1.000000
vn -0.000000 0.000000 1.000000
vn 0.000000 -1.000000 0.000000
vn 0.000000 -1.000000 0.000000
vn 0.000000 -1.000000 0.000000
vn 0.000000 -1.000000 0.000000
vn 0.067652 0.034839 -0.997101
vn 0.067652 0.034839 -0.997101
vn 0.024866 0.999691 0.000418
vn 0.024866 0.999691 0.000418
vn 0.024866 0.999691 0.000418
vn 0.024866 0.999691 0.000418
vn 0.003369 0.999984 -0.004600
vn 0.002690 0.999986 -0.004644
vn 0.014482 0.999888 -0.003889
vn 0.014482 0.999888 -0.003889
vn -0.000000 0.000000 -1.000000
vn -0.000000 0.000000 -1.000000
vn -0.000000 0.000000 -1.000000
vn -0.000000 0.000000 -1.000000
vn -1.000000 -0.000001 0.000000
vn -1.000000 -0.000001 0.000000
vn -1.000000 -0.000001 0.000000
vn -1.000000 -0.000001 0.000000
vn 0.000000 0.000001 1.000000
vn 0.000000 0.000001 1.000000
vn 0.000000 0.000001 1.000000
vn 0.000000 0.000001 1.000000
vn 1.000000 -0.000000 0.000000
vn 1.000000 -0.000000 0.000000
vn 1.000000 -0.000000 0.000000
vn 1.000000 -0.000000 0.000000
vn 0.002965 0.999996 -0.000014
vn 0.002965 0.999996 -0.000014
vn 0.991757 0.128129 0.000000
vn 0.991757 0.128129 0.000000
vn -0.777981 0.628288 0.000000
vn -0.777981 0.628288 0.000000
vn -1.000000 0.000000 0.000000
vn -1.000000 0.000000 0.000000
vn -1.000000 0.000000 0.000000
vn -1.000000 0.000000 0.000000
vn -1.000000 0.000000 0.000000
vn -1.000000 0.000000 0.000000
vn 0.000000 0.128128 0.991758
vn 0.000000 0.128128 0.991758
vn 0.000000 0.630289 -0.776361
vn 0.000000 0.630289 -0.776361
vn 0.000000 0.000000 -1.000000
vn 0.000000 0.000000 -1.000000
vn 0.000000 0.000000 -1.000000
vn 0.004063 -0.999884 -0.014662
vn 0.004063 -0.999884 -0.014662
vn 0.002824 -0.999991 -0.003133
vn 0.002903 -0.999988 -0.003870
vn 0.000000 -0.999993 -0.003657
vn 0.004505 -0.999988 -0.001851
vn 0.004364 -0.999989 -0.001908
vn 0.004696 -0.999987 -0.001774
vn 0.004696 -0.999987 -0.001774
vn 0.002675 -0.999995 -0.001752
vn 0.002675 -0.999995 -0.001752
s 1
g genralDevise
usemtl initialShadingGroup
f 293/359/635 289/463/636 368/361/637 369/362/638
s off
f 293/459/639 294/363/640 290/462/641 289/360/642
f 294/458/643 296/456/644 292/460/645 290/364/646
s 2
f 295/457/647 291/461/648 371/369/649 372/370/650
s 3
f 370/371/651 297/372/652 293/359/653 369/362/654
s off
f 298/373/655 299/374/656 294/363/657 293/459/658 297/455/659
f 299/453/660 301/452/661 296/456/662 294/458/663
s 4
f 372/370/664 373/376/665 300/454/666 295/457/667
s 5
f 297/372/668 370/371/669 361/378/670 306/379/671
s off
f 298/373/672 297/455/673 306/448/674 307/464/675
f 299/374/676 298/373/677 307/464/678 308/465/679
s 6
f 301/452/680 299/453/681 308/450/682 309/449/683
s 7
f 300/454/684 373/376/685 374/383/686 305/384/687
s 6
f 309/449/683 308/450/682 303/470/688 304/386/689
s 7
f 305/384/687 374/383/686 375/387/690 302/388/691
s 8
f 310/489/692 340/390/693 322/391/694 312/392/695
s 9
f 314/393/696 336/394/697 337/495/698 315/499/699
s 10
f 317/397/700 316/398/701 319/399/702 318/490/703
s 11
f 318/400/704 319/488/705 338/401/706 339/402/707
s 12
f 320/403/708 303/493/709 308/381/710 321/482/711
s 11
f 318/400/704 339/402/707 340/390/712 310/489/713
s 12
f 311/492/714 320/403/708 321/482/711 313/473/715
s 10
f 318/490/703 310/389/716 312/392/717 317/397/700
f 315/487/718 319/399/702 316/398/701 314/393/719
s 11
f 315/396/720 337/395/721 338/401/706 319/488/705
s 13
f 317/397/722 312/392/723 322/391/724 323/407/725
f 316/398/726 317/397/722 323/407/725
s 9
f 324/408/727 330/409/728 331/497/729 325/496/730
s 11
f 326/412/731 325/411/732 331/410/733 332/413/734
f 327/414/735 326/412/731 332/413/734 333/415/736
f 328/416/737 327/414/735 333/415/736 334/417/738
s 8
f 329/418/739 328/416/740 334/417/741 335/419/742
s 11
f 359/420/743 360/472/744 303/385/745 320/491/746
f 358/422/747 359/420/743 320/491/746 311/405/748
s 8
f 357/423/749 358/422/750 311/405/751 313/494/752
s 9
f 336/394/697 324/408/727 325/496/730 337/495/698
s 11
f 338/401/706 337/395/721 325/411/732 326/412/731
f 339/402/707 338/401/706 326/412/731 327/414/735
f 340/390/712 339/402/707 327/414/735 328/416/737
s 8
f 322/391/694 340/390/693 328/416/740 329/418/739
s 13
f 323/407/725 322/391/724 329/418/753 341/424/754
f 341/424/754 329/418/753 335/419/755 342/425/756
f 341/424/754 342/425/756 343/426/757
s off
f 330/409/758 324/408/759 341/424/760 343/426/761
s 13
f 324/408/762 336/394/763 323/407/725 341/424/754
s off
f 336/394/764 314/393/765 316/398/766 323/407/767
s 17
f 321/482/768 308/381/769 307/380/770 356/479/771
s off
f 345/428/772 344/429/773 348/485/774 349/431/775
f 344/486/776 346/432/777 350/433/778 348/430/779
f 347/434/780 345/428/781 349/431/782 351/435/783
f 346/432/784 347/434/785 351/435/786 350/433/787
f 349/431/788 348/485/789 352/478/790 353/437/791
f 348/430/792 350/433/793 354/481/794 352/436/795
f 351/435/796 349/431/797 353/475/798 355/439/799
f 350/433/800 351/435/801 355/484/802 354/438/803
s 18
f 366/440/804 367/441/805 342/425/806 335/419/807
s 8
f 335/419/742 334/417/741 365/442/808 366/440/809
s 11
f 334/417/738 333/415/736 364/443/810 365/442/811
f 333/415/736 332/413/734 363/444/812 364/443/810
f 332/413/734 331/410/733 362/498/813 363/444/812
s 9
f 330/409/728 361/469/814 362/468/815 331/497/729
s off
f 306/466/816 361/469/817 330/409/818 343/426/819
s 17
f 367/441/820 306/466/821 343/426/822 342/425/823
s off
f 321/404/824 356/480/825 354/438/826 355/484/827
f 356/427/828 357/476/829 352/436/830 354/481/831
f 357/477/832 313/474/833 353/437/834 352/478/835
f 313/406/836 321/483/837 355/439/838 353/475/839
s 11
f 364/443/810 363/444/812 360/472/744 359/420/743
f 365/442/811 364/443/810 359/420/743 358/422/747
s 8
f 366/440/809 365/442/808 358/422/750 357/423/749
s 18
f 357/423/840 356/479/841 367/441/805 366/440/804
s 17
f 356/479/771 307/380/770 306/466/821 367/441/820
s 1
f 369/362/638 368/361/637 291/368/842 295/367/843
s 3
f 300/377/844 370/371/651 369/362/654 295/367/845
s 5
f 361/378/670 370/371/669 300/377/846 305/451/847
s off
f 305/451/848 302/447/849 362/467/850 361/378/851
s 2
f 372/370/650 371/369/649 292/366/852 296/365/853
s 4
f 301/375/854 373/376/665 372/370/664 296/365/855
s 7
f 374/383/686 373/376/685 301/375/856 309/382/857
f 375/387/690 374/383/686 309/382/857 304/386/858
s 19
f 302/388/859 375/387/860 376/446/861 362/445/862
s 20
f 375/387/863 304/386/864 376/446/865
f 376/446/865 304/386/864 303/470/866 360/421/867
s 19
f 362/445/862 376/446/861 360/421/868 363/471/869
g default
v 0.763616 -0.042399 0.011252
v 0.763616 0.042399 0.011252
v 0.763616 0.084797 0.084689
v 0.763616 0.042399 0.158126
v 0.763616 -0.042399 0.158126
v 0.763616 -0.084797 0.084689
v 0.933211 -0.042399 0.011252
v 0.933211 0.042399 0.011252
v 0.933211 0.084797 0.084689
v 0.933211 0.042399 0.158126
v 0.933211 -0.042399 0.158126
v 0.933211 -0.084797 0.084689
v 0.776644 0.170330 -0.056894
v 0.776644 -0.170330 -0.056894
v 0.851327 -0.170330 -0.038464
v 0.851327 0.170330 -0.038464
v 0.788101 0.170330 0.239150
v 0.788101 -0.170330 0.239150
v 0.848186 -0.170330 0.191120
v 0.848186 0.170330 0.191120
v 1.044447 0.170330 0.371743
v 1.044447 -0.170330 0.371743
v 1.071253 -0.170330 0.299642
v 1.071253 0.170330 0.299642
v 1.187853 0.170330 0.533485
v 1.187853 -0.170330 0.533485
v 1.263308 -0.170330 0.518525
v 1.263308 0.170330 0.518525
v 1.270270 0.170330 1.175983
v 1.270270 -0.170330 1.175983
v 1.347045 -0.170330 1.171209
v 1.347045 0.170330 1.171209
v 1.259315 0.170330 1.610743
v 1.259315 -0.170330 1.610743
v 1.336216 -0.170330 1.612582
v 1.336216 0.170330 1.612582
v 1.214914 0.170330 1.877861
v 1.214914 -0.170330 1.877861
v 1.291119 -0.170330 1.888348
v 1.291119 0.170330 1.888348
v 1.073345 0.168659 2.030558
v 1.073345 -0.172000 2.030558
v 1.098886 -0.172000 2.103117
v 1.098886 0.168659 2.103117
v 0.776396 0.170330 2.447957
v 0.776396 -0.170330 2.447957
v 0.853169 -0.170330 2.443149
v 0.853169 0.170330 2.443149
v 0.895368 0.170330 2.712019
v 0.895368 -0.170330 2.712019
v 0.959184 -0.170330 2.669069
v 0.959184 0.170330 2.669069
v 0.828075 0.170060 2.113773
v 0.780189 0.170330 2.179600
v 0.828075 -0.170599 2.113773
v 0.780189 -0.170330 2.179600
v 0.885704 -0.170646 2.168296
v 0.839386 -0.170330 2.235433
v 0.885704 0.170014 2.168296
v 0.839386 0.170330 2.235433
v 0.956177 -0.170330 -0.184991
v 0.956177 0.170330 -0.184991
v 0.881494 -0.170330 -0.203421
v 0.881494 0.170330 -0.203421
v 0.763616 -0.042399 2.244517
v 0.763616 0.042399 2.244517
v 0.763616 0.084797 2.317954
v 0.763616 0.042399 2.391391
v 0.763616 -0.042399 2.391391
v 0.763616 -0.084797 2.317954
v 0.933211 -0.042399 2.244517
v 0.933211 0.042399 2.244517
v 0.933211 0.084797 2.317954
v 0.933211 0.042399 2.391391
v 0.933211 -0.042399 2.391391
v 0.933211 -0.084797 2.317954
vt 0.950935 0.204240
vt 0.950937 0.193168
vt 0.973080 0.193172
vt 0.973078 0.204244
vt 0.950927 0.248527
vt 0.973070 0.248531
vt 0.950929 0.237455
vt 0.973072 0.237459
vt 0.950931 0.226383
vt 0.973074 0.226387
vt 0.950933 0.215312
vt 0.992249 0.237463
vt 0.973076 0.215316
vt 0.992247 0.248534
vt 0.982662 0.231925
vt 0.982657 0.254069
vt 0.950925 0.259599
vt 0.973068 0.259603
vt 0.844407 0.215160
vt 0.885255 0.223579
vt 0.879507 0.259733
vt 0.836225 0.252380
vt 0.893511 0.224305
vt 0.888566 0.259023
vt 0.933391 0.227845
vt 0.935190 0.257189
vt 0.941616 0.228360
vt 0.944240 0.256417
vt 0.879909 0.295378
vt 0.833966 0.293051
vt 0.889255 0.291476
vt 0.934589 0.289405
vt 0.943649 0.291942
vt 0.880194 0.324848
vt 0.834667 0.323200
vt 0.889832 0.326466
vt 0.934204 0.325528
vt 0.943899 0.323529
vt 0.879784 0.412202
vt 0.835126 0.410268
vt 0.890118 0.411832
vt 0.935949 0.410198
vt 0.946110 0.409070
vt 0.880884 0.469579
vt 0.834851 0.470047
vt 0.891256 0.468147
vt 0.937301 0.467890
vt 0.947522 0.468908
vt 0.882149 0.506219
vt 0.835900 0.506443
vt 0.891701 0.502797
vt 0.936373 0.504507
vt 0.945256 0.508799
vt 0.881224 0.534698
vt 0.835074 0.533917
vt 0.890335 0.538005
vt 0.935056 0.541607
vt 0.944135 0.539134
vt 0.835281 0.612318
vt 0.880034 0.606068
vt 0.879154 0.643242
vt 0.838414 0.647782
vt 0.889187 0.607291
vt 0.887164 0.640873
vt 0.931130 0.612770
vt 0.926015 0.646267
vt 0.940183 0.613199
vt 0.935111 0.649898
vt 0.938076 0.205007
vt 0.896721 0.199051
vt 0.898066 0.189713
vt 0.939421 0.195669
vt 0.924797 0.655040
vt 0.885946 0.649646
vt 0.946925 0.573937
vt 0.945764 0.582875
vt 0.937499 0.583467
vt 0.936622 0.571507
vt 0.834370 0.578735
vt 0.833989 0.568281
vt 0.878678 0.566669
vt 0.879420 0.575365
vt 0.888797 0.567209
vt 0.888788 0.579334
vt 0.887548 0.201258
vt 0.846192 0.195302
vt 0.946254 0.209713
vt 0.193246 0.201323
vt 0.193248 0.190251
vt 0.215392 0.190255
vt 0.215390 0.201327
vt 0.193236 0.256682
vt 0.193238 0.245610
vt 0.215382 0.245614
vt 0.215380 0.256686
vt 0.193240 0.234538
vt 0.215384 0.234542
vt 0.193242 0.223467
vt 0.215386 0.223471
vt 0.193244 0.212395
vt 0.215388 0.212399
vt 0.234558 0.245618
vt 0.224969 0.251152
vt 0.234560 0.234546
vt 0.224973 0.229008
vn 0.000000 0.000000 -1.000000
vn 0.000000 0.000000 -1.000000
vn 0.000000 0.000000 -1.000000
vn 0.000000 0.000000 -1.000000
vn 0.000000 0.866025 -0.500001
vn 0.000000 0.866025 -0.500001
vn 0.000000 0.866025 -0.500001
vn 0.000000 0.866025 -0.500001
vn 0.000000 0.866026 0.500000
vn 0.000000 0.866026 0.500000
vn 0.000000 0.866026 0.500000
vn 0.000000 0.866026 0.500000
vn 0.000000 0.000000 1.000000
vn 0.000000 0.000000 1.000000
vn 0.000000 0.000000 1.000000
vn 0.000000 0.000000 1.000000
vn 0.000000 -0.866025 0.500000
vn 0.000000 -0.866025 0.500000
vn 0.000000 -0.866025 0.500000
vn 0.000000 -0.866025 0.500000
vn 0.000000 -0.866025 -0.500000
vn 0.000000 -0.866025 -0.500000
vn 0.000000 -0.866025 -0.500000
vn 0.000000 -0.866025 -0.500000
vn 1.000000 0.000000 0.000000
vn 1.000000 0.000000 0.000000
vn 1.000000 0.000000 0.000000
vn 1.000000 0.000000 0.000000
vn 1.000000 0.000000 0.000000
vn 1.000000 0.000000 0.000000
vn -0.999252 0.000000 0.038672
vn -0.999252 0.000000 0.038672
vn -0.999252 0.000000 0.038672
vn -0.999252 0.000000 0.038672
vn 0.000000 -1.000000 0.000000
vn 0.000000 -1.000000 0.000000
vn 0.000000 -1.000000 0.000000
vn 0.000000 -1.000000 0.000000
vn 0.999907 0.000000 0.013677
vn 0.999907 0.000000 0.013677
vn 0.999907 0.000000 0.013677
vn 0.999907 0.000000 0.013677
vn 0.000000 1.000000 0.000000
vn 0.000000 1.000000 0.000000
vn 0.000000 1.000000 0.000000
vn 0.000000 1.000000 0.000000
vn -0.459424 0.000000 0.888217
vn -0.459424 0.000000 0.888217
vn -0.592913 0.000000 0.805267
vn -0.592913 0.000000 0.805267
vn 0.000000 -1.000000 0.000000
vn 0.000000 -1.000000 0.000000
vn 0.437477 0.000000 -0.899230
vn 0.437477 0.000000 -0.899230
vn 0.619269 0.000000 -0.785179
vn 0.619269 0.000000 -0.785179
vn 0.000000 1.000000 0.000000
vn 0.000000 1.000000 0.000000
vn -0.962766 0.000000 0.270336
vn -0.962766 0.000000 0.270336
vn 0.000000 -1.000000 0.000000
vn 0.000000 -1.000000 0.000000
vn 0.953407 0.000000 -0.301688
vn 0.953407 0.000000 -0.301688
vn 0.000000 1.000000 0.000000
vn 0.000000 1.000000 0.000000
vn -0.997807 0.000000 0.066192
vn -0.997807 0.000000 0.066192
vn 0.000000 -1.000000 -0.000000
vn 0.000000 -1.000000 -0.000000
vn 0.997787 0.000000 -0.066493
vn 0.997787 0.000000 -0.066493
vn 0.000000 1.000000 -0.000000
vn 0.000000 1.000000 -0.000000
vn -0.996904 0.000000 -0.078625
vn -0.996904 0.000000 -0.078625
vn 0.000000 -1.000000 0.000000
vn 0.000000 -1.000000 0.000000
vn 0.996973 0.000000 0.077750
vn 0.996973 0.000000 0.077750
vn 0.000000 1.000000 0.000000
vn 0.000000 1.000000 0.000000
vn -0.914003 0.000000 -0.405707
vn -0.914612 0.000000 -0.404332
vn 0.001369 -0.999998 -0.001677
vn 0.002225 -0.999994 -0.002726
vn 0.900412 0.000000 0.435038
vn 0.899943 0.000000 0.436007
vn -0.002225 0.999994 0.002727
vn -0.001369 0.999998 0.001678
vn -0.520486 0.000000 -0.853870
vn -0.520841 0.000000 -0.853653
vn -0.001405 -0.999999 -0.000256
vn 0.000022 -0.999999 -0.001507
vn 0.745119 0.000000 0.666931
vn 0.745119 0.000000 0.666931
vn -0.000022 0.999999 0.001507
vn 0.001405 0.999999 0.000257
vn -0.977391 0.000000 0.211441
vn -0.977391 0.000000 0.211441
vn -0.911735 0.000000 0.410778
vn -0.911735 0.000000 0.410778
vn 0.000000 -1.000000 -0.000000
vn 0.000000 -1.000000 -0.000000
vn 0.000000 -1.000000 0.000000
vn 0.000000 -1.000000 0.000000
vn 0.963894 0.000000 -0.266288
vn 0.963894 0.000000 -0.266288
vn 0.905282 0.000000 -0.424811
vn 0.905282 0.000000 -0.424811
vn 0.000000 1.000000 -0.000000
vn 0.000000 1.000000 -0.000000
vn 0.000000 1.000000 0.000000
vn 0.000000 1.000000 0.000000
vn 0.239594 0.000000 -0.970873
vn 0.239594 0.000000 -0.970873
vn 0.239594 0.000000 -0.970873
vn 0.239594 0.000000 -0.970873
vn 0.558355 0.000000 0.829602
vn 0.558355 0.000000 0.829602
vn 0.558355 0.000000 0.829602
vn 0.558355 0.000000 0.829602
vn 0.004294 0.999987 -0.002787
vn 0.001237 0.999999 -0.001118
vn 0.000527 1.000000 -0.000477
vn 0.004516 0.999986 -0.002832
vn -0.808666 0.000000 -0.588269
vn -0.808666 0.000000 -0.588269
vn -0.808666 0.000000 -0.588269
vn -0.808666 0.000000 -0.588269
vn -0.001237 -0.999999 0.001118
vn -0.004294 -0.999987 0.002787
vn -0.004516 -0.999986 0.002833
vn -0.000527 -1.000000 0.000477
vn 0.823121 0.000000 0.567866
vn 0.823121 0.000000 0.567866
vn 0.823121 0.000000 0.567866
vn 0.823121 0.000000 0.567866
vn -0.321292 0.000000 -0.946980
vn -0.321292 0.000000 -0.946980
vn 0.292385 0.000000 0.956301
vn 0.292385 0.000000 0.956301
vn 0.292385 0.000000 0.956301
vn 0.292385 0.000000 0.956301
vn -0.999900 0.000000 -0.014131
vn -0.999900 0.000000 -0.014131
vn 0.997806 0.000000 -0.066209
vn 0.997806 0.000000 -0.066209
vn 0.813240 0.000000 0.581928
vn 0.813240 0.000000 0.581928
vn 0.813240 0.000000 0.581928
vn 0.813240 0.000000 0.581928
vn 0.000000 -1.000000 0.000000
vn 0.000000 -1.000000 0.000000
vn -0.813240 0.000000 -0.581928
vn -0.813240 0.000000 -0.581928
vn -0.813240 0.000000 -0.581928
vn -0.813240 0.000000 -0.581928
vn 0.000000 1.000000 0.000000
vn 0.000000 1.000000 0.000000
vn 0.000000 0.000000 -1.000000
vn 0.000000 0.000000 -1.000000
vn 0.000000 0.000000 -1.000000
vn 0.000000 0.000000 -1.000000
vn 0.000000 0.866024 -0.500002
vn 0.000000 0.866024 -0.500002
vn 0.000000 0.866024 -0.500002
vn 0.000000 0.866024 -0.500002
vn 0.000000 0.866026 0.499999
vn 0.000000 0.866026 0.499999
vn 0.000000 0.866026 0.499999
vn 0.000000 0.866026 0.499999
vn 0.000000 0.000000 1.000000
vn 0.000000 0.000000 1.000000
vn 0.000000 0.000000 1.000000
vn 0.000000 0.000000 1.000000
vn 0.000000 -0.866026 0.499999
vn 0.000000 -0.866026 0.499999
vn 0.000000 -0.866026 0.499999
vn 0.000000 -0.866026 0.499999
vn 0.000000 -0.866025 -0.500001
vn 0.000000 -0.866025 -0.500001
vn 0.000000 -0.866025 -0.500001
vn 0.000000 -0.866025 -0.500001
vn 1.000000 0.000000 0.000000
vn 1.000000 0.000000 0.000000
vn 1.000000 0.000000 0.000000
vn 1.000000 0.000000 0.000000
vn 1.000000 0.000000 0.000000
vn 1.000000 0.000000 0.000000
s off
g bolt3
usemtl initialShadingGroup
f 377/500/870 378/501/871 384/502/872 383/503/873
f 378/516/874 379/504/875 385/505/876 384/517/877
f 379/504/878 380/506/879 386/507/880 385/505/881
f 380/506/882 381/508/883 387/509/884 386/507/885
f 381/508/886 382/510/887 388/512/888 387/509/889
f 382/510/890 377/500/891 383/503/892 388/512/893
s 1
f 383/513/894 384/515/895 385/505/896 388/511/897
f 388/511/897 385/505/896 386/507/898 387/514/899
s off
f 389/518/900 390/519/901 394/520/902 393/521/903
s 2
f 390/519/904 391/522/905 395/523/906 394/520/907
s off
f 391/522/908 392/524/909 396/525/910 395/523/911
s 3
f 392/524/912 389/526/913 393/527/914 396/525/915
s 4
f 393/521/916 394/520/917 398/528/918 397/529/919
s 2
f 394/520/907 395/523/906 399/530/920 398/528/921
s 5
f 395/523/922 396/525/923 400/531/924 399/530/925
s 3
f 396/525/915 393/527/914 397/532/926 400/531/927
s 4
f 397/529/919 398/528/918 402/533/928 401/534/929
s 2
f 398/528/921 399/530/920 403/535/930 402/533/931
s 5
f 399/530/925 400/531/924 404/536/932 403/535/933
s 3
f 400/531/927 397/532/926 401/537/934 404/536/935
s 4
f 401/534/929 402/533/928 406/538/936 405/539/937
s 2
f 402/533/931 403/535/930 407/540/938 406/538/939
s 5
f 403/535/933 404/536/932 408/541/940 407/540/941
s 3
f 404/536/935 401/537/934 405/542/942 408/541/943
s 4
f 405/539/937 406/538/936 410/543/944 409/544/945
s 2
f 406/538/939 407/540/938 411/545/946 410/543/947
s 5
f 407/540/941 408/541/940 412/546/948 411/545/949
s 3
f 408/541/943 405/542/942 409/547/950 412/546/951
s 4
f 409/544/945 410/543/944 414/548/952 413/549/953
s 2
f 410/543/947 411/545/946 415/550/954 414/548/955
s 5
f 411/545/949 412/546/948 416/551/956 415/550/957
s 3
f 412/546/951 409/547/950 413/552/958 416/551/959
s 4
f 413/549/953 414/548/952 418/553/960 417/554/961
s 2
f 414/548/955 415/550/954 419/555/962 418/553/963
s 5
f 415/550/957 416/551/956 420/556/964 419/555/965
s 3
f 416/551/959 413/552/958 417/557/966 420/556/967
s 6
f 421/558/968 422/559/969 426/560/970 425/561/971
s 2
f 422/559/972 423/562/973 427/563/974 426/560/975
s 8
f 423/562/976 424/564/977 428/565/978 427/563/979
s 3
f 424/564/980 421/566/981 425/567/982 428/565/983
s off
f 438/568/984 437/569/985 439/570/986 440/571/987
f 425/572/988 426/573/989 427/563/990 428/565/991
s 3
f 429/574/992 430/575/993 436/576/994 435/577/995
s off
f 430/578/996 429/579/997 431/580/998 432/581/999
s 2
f 432/581/1000 431/580/1001 433/582/1002 434/583/1003
s off
f 434/583/1004 433/582/1005 435/577/1006 436/576/1007
s 4
f 417/554/961 418/553/960 431/580/1008 429/579/1009
s 2
f 418/553/963 419/555/962 433/582/1002 431/580/1001
s off
f 419/555/1010 420/556/1011 435/577/1012 433/582/1013
s 3
f 420/556/967 417/557/966 429/574/992 435/577/995
s 6
f 430/578/1014 432/581/1015 422/559/969 421/558/968
s 2
f 432/581/1000 434/583/1003 423/562/973 422/559/972
s 8
f 434/583/1016 436/576/1017 424/564/977 423/562/976
s 3
f 436/576/994 430/575/993 421/566/981 424/564/980
s off
f 392/524/1018 391/522/1019 437/569/1020 438/568/1021
s 2
f 391/522/905 390/519/904 439/584/1022 437/569/1023
s off
f 390/519/1024 389/518/1025 440/585/1026 439/584/1027
s 3
f 389/526/913 392/524/912 438/568/1028 440/586/1029
s off
f 441/587/1030 442/588/1031 448/589/1032 447/590/1033
f 442/591/1034 443/592/1035 449/593/1036 448/594/1037
f 443/592/1038 444/595/1039 450/596/1040 449/593/1041
f 444/595/1042 445/597/1043 451/598/1044 450/596/1045
f 445/597/1046 446/599/1047 452/600/1048 451/598/1049
f 446/599/1050 441/587/1051 447/590/1052 452/600/1053
s 10
f 447/601/1054 448/602/1055 449/593/1056 452/603/1057
f 452/603/1057 449/593/1056 450/596/1058 451/604/1059
