# This file uses centimeters as units for non-parametric coordinates.

mtllib deviseExport_Nob.mtl
g default
v 0.347075 -0.148041 -0.333762
v 0.132571 -0.148041 -0.489609
v -0.132571 -0.148041 -0.489608
v -0.347075 -0.148041 -0.333762
v -0.429008 -0.148041 -0.081598
v -0.347075 -0.148041 0.170567
v -0.132571 -0.148041 0.326413
v 0.132571 -0.148041 0.326413
v 0.347074 -0.148041 0.170567
v 0.429008 -0.148041 -0.081598
v 0.347075 0.055896 -0.333762
v 0.132571 0.055896 -0.489609
v -0.132571 0.055896 -0.489608
v -0.347075 0.055896 -0.333762
v -0.429008 0.055896 -0.081598
v -0.347075 0.055896 0.170567
v -0.132571 0.055896 0.326413
v 0.132571 0.055896 0.326413
v 0.347074 0.055896 0.170567
v 0.429008 0.055896 -0.081598
v 0.125290 0.055896 -0.445226
v -0.125290 0.055896 -0.445226
v -0.084350 0.055896 -0.081598
v 0.084350 0.056236 -0.081598
v -0.048962 0.055896 0.282031
v 0.125290 0.148041 -0.445226
v -0.125290 0.148041 -0.445226
v -0.084350 0.148041 -0.081598
v 0.084350 0.148041 -0.081598
v -0.048962 0.148041 0.282031
v 0.048961 0.148041 0.282031
v -0.005621 0.055896 0.489609
v 0.005621 0.056236 0.489608
v 0.005621 0.148041 0.489608
v -0.005621 0.148041 0.489609
v 0.048961 0.056577 0.282031
vt 0.532964 0.000003
vt 0.567583 0.000003
vt 0.402249 0.817046
vt 0.391557 0.849972
vt 0.602202 0.000003
vt 0.430253 0.796693
vt 0.636820 0.000002
vt 0.464872 0.796687
vt 0.671439 0.000002
vt 0.492883 0.817030
vt 0.706058 0.000002
vt 0.503586 0.849953
vt 0.740677 0.000001
vt 0.492894 0.882879
vt 0.775296 0.000001
vt 0.464890 0.903232
vt 0.809914 0.000000
vt 0.430271 0.903239
vt 0.844533 0.000000
vt 0.402261 0.882895
vt 0.322500 0.350086
vt 0.322494 0.316539
vt 0.370970 0.321876
vt 0.371054 0.344757
vt 0.418670 0.326640
vt 0.418590 0.340000
vt 0.406425 0.821175
vt 0.432891 0.801939
vt 0.456481 0.843488
vt 0.438663 0.856438
vt 0.480656 0.884610
vt 0.447407 0.332339
vt 0.447281 0.334989
vt 0.438673 0.333973
vt 0.438669 0.332941
vt 0.470313 0.892126
vt 0.498345 0.000004
vt 0.498346 0.026631
vt 0.844533 0.026628
vt 0.532965 0.026631
vt 0.809915 0.026628
vt 0.775296 0.026628
vt 0.740677 0.026629
vt 0.706058 0.026629
vt 0.671440 0.026629
vt 0.636821 0.026630
vt 0.602202 0.026630
vt 0.567583 0.026630
vt 0.422303 0.314286
vt 0.422369 0.351977
vt 0.372549 0.357087
vt 0.372457 0.309629
vt 0.323884 0.362335
vt 0.310195 0.316547
vt 0.448323 0.336076
vt 0.431689 0.361088
vt 0.323893 0.304303
vt 0.310198 0.350074
vn 0.809017 0.000000 -0.587785
vn 0.309017 0.000000 -0.951057
vn 0.309017 0.000000 -0.951057
vn 0.809017 0.000000 -0.587785
vn -0.309017 0.000000 -0.951057
vn -0.309017 0.000000 -0.951057
vn -0.809017 0.000000 -0.587785
vn -0.809017 0.000000 -0.587785
vn -1.000000 0.000000 0.000000
vn -1.000000 0.000000 0.000000
vn -0.809017 0.000000 0.587785
vn -0.809017 0.000000 0.587785
vn -0.309017 0.000000 0.951057
vn -0.309017 0.000000 0.951057
vn 0.309017 0.000000 0.951056
vn 0.309017 0.000000 0.951056
vn 0.809017 0.000000 0.587785
vn 0.809017 0.000000 0.587785
vn 1.000000 0.000000 0.000001
vn 1.000000 0.000000 0.000001
vn 0.000000 1.000000 -0.000000
vn 0.000000 1.000000 -0.000000
vn 0.000000 1.000000 -0.000000
vn 0.000000 1.000000 -0.000000
vn 0.000000 1.000000 0.000000
vn 0.000000 1.000000 0.000000
vn -0.000000 0.000000 -1.000000
vn -0.000000 0.000000 -1.000000
vn -0.000000 0.000000 -1.000000
vn -0.000000 0.000000 -1.000000
vn -0.993722 0.000000 0.111881
vn -0.994537 0.000000 0.104381
vn -0.994537 0.000000 0.104381
vn -0.993722 0.000000 0.111881
vn 0.993722 0.000000 0.111881
vn 0.993722 0.000000 0.111881
vn 0.993722 0.000000 0.111881
vn 0.993722 0.000000 0.111881
vn -0.990635 0.000000 0.136540
vn -0.990635 0.000000 0.136540
vn 0.000011 0.000000 1.000000
vn 0.000011 0.000000 1.000000
vn 0.000011 0.000000 1.000000
vn 0.000011 0.000000 1.000000
vn 0.000000 1.000000 0.000000
vn 0.000000 1.000000 0.000000
vn -0.978890 0.000000 0.204387
vn -0.978890 0.000000 0.204387
vn 0.995298 -0.000000 0.096864
vn 0.990635 -0.000000 0.136540
vn 0.990633 -0.000000 0.136550
vn 0.995298 -0.000000 0.096864
vn 0.978891 0.000000 0.204385
vn 0.978891 0.000000 0.204385
vn 0.000000 1.000000 -0.000000
vn 0.000000 1.000000 -0.000000
vn 0.000000 1.000000 -0.000000
vn 0.000000 1.000000 -0.000000
vn 0.000000 1.000000 0.000000
vn 0.000000 1.000000 0.000000
vn 0.000000 1.000000 0.000000
vn 0.000000 1.000000 0.000000
vn 0.000719 1.000000 -0.000601
vn 0.000719 1.000000 -0.000601
vn 0.000719 1.000000 -0.000601
vn 0.000719 1.000000 -0.000601
vn 0.001544 0.999999 -0.000259
vn 0.001544 0.999999 -0.000259
vn 0.001544 0.999999 -0.000259
vn 0.001544 0.999999 -0.000259
vn -0.000000 1.000000 -0.000000
vn -0.000000 1.000000 -0.000000
vn -0.000000 1.000000 -0.000000
vn -0.000000 1.000000 -0.000000
vn 0.000000 1.000000 0.000000
vn 0.000000 1.000000 0.000000
vn 0.000000 1.000000 0.000000
vn 0.000000 1.000000 0.000000
vn 0.000000 1.000000 0.000000
vn 0.000000 1.000000 0.000000
vn 0.009354 -0.999956 -0.000820
vn 0.009354 -0.999956 -0.000820
vn 0.009354 -0.999956 -0.000820
vn 0.009354 -0.999956 -0.000820
vn -0.001875 0.999969 0.007670
vn -0.001875 0.999969 0.007670
vn -0.001875 0.999969 0.007670
vn -0.001875 0.999969 0.007670
vn 0.004705 0.999968 0.006476
vn 0.004705 0.999968 0.006476
vn 0.004705 0.999968 0.006476
vn -0.000000 1.000000 0.000001
vn -0.000000 1.000000 0.000001
vn -0.000000 1.000000 0.000001
s 1
g nob
usemtl initialShadingGroup
f 1/1/1 2/2/2 12/48/3 11/40/4
f 2/2/2 3/5/5 13/47/6 12/48/3
f 3/5/5 4/7/7 14/46/8 13/47/6
f 4/7/7 5/9/9 15/45/10 14/46/8
f 5/9/9 6/11/11 16/44/12 15/45/10
f 6/11/11 7/13/13 17/43/14 16/44/12
f 7/13/13 8/15/15 18/42/16 17/43/14
f 8/15/15 9/17/17 19/41/18 18/42/16
f 9/17/17 10/19/19 20/39/20 19/41/18
f 10/37/19 1/1/1 11/40/4 20/38/20
s 2
f 26/21/21 27/22/22 28/23/23 29/24/24
f 29/24/24 28/23/23 30/25/25 31/26/26
s off
f 21/58/27 22/54/28 27/22/29 26/21/30
s 3
f 22/57/31 23/52/32 28/23/33 27/22/34
s off
f 24/51/35 21/53/36 26/21/37 29/24/38
s 3
f 23/52/32 25/49/39 30/25/40 28/23/33
s off
f 32/32/41 33/33/42 34/34/43 35/35/44
s 2
f 31/26/26 30/25/25 35/35/45 34/34/46
s 3
f 30/25/40 25/49/39 32/32/47 35/35/48
s 4
f 29/24/49 31/26/50 36/50/51 24/51/52
f 31/26/50 34/34/53 33/33/54 36/50/51
s off
f 12/3/55 13/6/56 22/28/57 21/27/58
f 14/8/59 15/10/60 23/29/61 22/28/62
f 20/20/63 11/4/64 21/27/65 24/30/66
f 19/18/67 20/20/68 24/30/69 36/36/70
f 15/10/71 16/12/72 25/31/73 23/29/74
f 12/3/75 21/27/76 11/4/77
f 14/8/78 22/28/79 13/6/80
f 32/55/81 25/56/82 36/50/83 33/33/84
f 17/14/85 18/16/86 36/36/87 25/31/88
f 19/18/89 36/36/90 18/16/91
f 17/14/92 25/31/93 16/12/94
